<?xml version="1.0" encoding="UTF-8" standalone="no"?>
<!-- Created with Inkscape (http://www.inkscape.org/) -->

<svg
   xmlns:dc="http://purl.org/dc/elements/1.1/"
   xmlns:cc="http://creativecommons.org/ns#"
   xmlns:rdf="http://www.w3.org/1999/02/22-rdf-syntax-ns#"
   xmlns:svg="http://www.w3.org/2000/svg"
   xmlns="http://www.w3.org/2000/svg"
   xmlns:sodipodi="http://sodipodi.sourceforge.net/DTD/sodipodi-0.dtd"
   xmlns:inkscape="http://www.inkscape.org/namespaces/inkscape"
   version="1.1"
   id="svg10"
   width="1093.3333"
   height="1093.3333"
   viewBox="0 0 1093.3333 1093.3333"
   sodipodi:docname="Logo restaurante.svg"
   inkscape:version="0.92.4 (5da689c313, 2019-01-14)">
  <metadata
     id="metadata16">
    <rdf:RDF>
      <cc:Work
         rdf:about="">
        <dc:format>image/svg+xml</dc:format>
        <dc:type
           rdf:resource="http://purl.org/dc/dcmitype/StillImage" />
        <dc:title></dc:title>
      </cc:Work>
    </rdf:RDF>
  </metadata>
  <defs
     id="defs14" />
  <sodipodi:namedview
     pagecolor="#ffffff"
     bordercolor="#666666"
     borderopacity="1"
     objecttolerance="10"
     gridtolerance="10"
     guidetolerance="10"
     inkscape:pageopacity="0"
     inkscape:pageshadow="2"
     inkscape:window-width="1366"
     inkscape:window-height="745"
     id="namedview12"
     showgrid="false"
     inkscape:zoom="0.37252458"
     inkscape:cx="523.76774"
     inkscape:cy="711.76638"
     inkscape:window-x="-8"
     inkscape:window-y="-8"
     inkscape:window-maximized="1"
     inkscape:current-layer="g3726"
     inkscape:snap-nodes="true"
     inkscape:snap-bbox="false"
     inkscape:snap-midpoints="false" />
  <g
     id="g3726"
     transform="translate(-5.6944435,43.657404)">
    <path
       style="fill:#e5ccac;stroke-width:1.33333325"
       d="m 207.66395,924.76431 c -14.44785,-5.15594 -24.9146,-19.97372 -29.74504,-42.11011 -1.19868,-5.49316 -2.49777,-18.38756 -2.88689,-28.65423 -1.71309,-45.20026 8.96827,-76.88522 29.57471,-87.72973 8.33981,-4.38897 20.85182,-4.03894 29.10836,0.81432 15.65409,9.2016 23.59584,29.39102 25.75274,65.46831 0.76398,12.77852 0.59047,15.92561 -0.93112,16.88897 -1.02853,0.65117 -14.70994,1.19316 -30.40313,1.20439 l -28.53308,0.0204 0.79288,14.33333 c 0.95425,17.25066 3.55988,25.51204 9.76469,30.95994 7.97224,6.99972 16.01867,4.77238 21.1138,-5.84452 1.79012,-3.73015 3.66204,-9.07999 4.1598,-11.88854 0.49778,-2.80854 1.73899,-5.42646 2.75827,-5.8176 2.86981,-1.10125 15.89903,0.87432 18.54985,2.81266 2.17684,1.59174 2.22618,2.41805 0.60142,10.07425 -2.46899,11.63439 -9.4561,25.52432 -16.06684,31.93981 -8.72136,8.4638 -22.40222,11.52815 -33.61042,7.52834 z m 26.66327,-108.431 c -1.20096,-17.22413 -6.968,-27 -15.92803,-27 -5.39113,0 -8.33621,1.83797 -11.72117,7.31496 -2.90345,4.69788 -7.29317,25.15882 -6.07735,28.3272 0.47695,1.24292 5.12816,1.69117 17.548,1.69117 h 16.89904 z m 72.78208,109.13581 c -15.20472,-3.91504 -26.16955,-18.06729 -29.09075,-37.54732 -1.08904,-7.26219 -0.19365,-8.23975 9.6636,-10.55059 8.69152,-2.03756 10.4844,-1.3915 11.6704,4.20534 3.13605,14.79924 14.78393,22.21353 25.88172,16.47465 6.84732,-3.54089 10.00331,-16.24601 6.26063,-25.20352 -2.33802,-5.59564 -5.68864,-8.18748 -20.10772,-15.55409 -14.98251,-7.65447 -20.55174,-12.5051 -25.43564,-22.15367 -3.7553,-7.41889 -3.951,-8.63437 -3.94058,-24.47328 0.009,-15.14814 0.3268,-17.34133 3.47748,-24.07148 12.94643,-27.65476 42.47954,-32.1036 58.16514,-8.76193 4.66769,6.94597 10.04437,22.3318 8.8718,25.38745 -0.9247,2.40974 -14.54022,7.9814 -17.10196,6.99836 -1.06744,-0.40961 -2.69483,-3.26145 -3.61642,-6.3374 -2.36145,-7.88186 -8.96012,-14.54833 -14.40034,-14.54833 -9.17374,0 -15.3013,12.01225 -12.13183,23.78279 1.66397,6.1795 3.86275,7.97751 19.85312,16.23461 14.1214,7.29198 24.21073,16.41553 28.33473,25.62245 2.7018,6.03181 3.14224,9.10363 3.11048,21.69348 -0.0417,16.52447 -2.37937,24.49348 -10.36489,35.33333 -8.06072,10.94195 -25.53512,16.96168 -39.09897,13.46915 z m 98.89069,-0.70505 c -6.35924,-2.33104 -14.09908,-10.53326 -16.64643,-17.64087 -1.40408,-3.91769 -1.94,-17.04547 -2.27755,-55.78989 -0.24276,-27.86667 -0.74561,-52.01667 -1.11744,-53.66667 -0.55502,-2.46293 -1.57854,-3 -5.71731,-3 -2.7727,0 -5.76127,-0.72 -6.64127,-1.6 -2.15003,-2.15002 -2.15003,-22.64997 0,-24.8 0.88,-0.88 4.09063,-1.6 7.13473,-1.6 h 5.53472 l 0.93761,-19 c 0.51568,-10.45 1.35506,-19.39736 1.86527,-19.88302 0.51021,-0.48566 4.72439,-1.44608 9.36481,-2.13428 12.15214,-1.8022 12.22952,-1.66439 12.22952,21.77921 v 19.23809 h 8.4 c 4.75556,0 9.09418,0.69418 10,1.6 0.98107,0.98107 1.6,5.77778 1.6,12.4 0,6.62223 -0.61893,11.41894 -1.6,12.4 -0.90774,0.90775 -5.25512,1.6 -10.04804,1.6 h -8.44805 l 0.38139,48.11669 0.38137,48.1167 3.74101,3.21664 c 2.94348,2.53089 5.25814,3.21664 10.85735,3.21664 8.48689,0 8.73497,0.39982 8.73497,14.0783 0,8.89295 -0.30897,10.06267 -3.14969,11.92398 -4.59177,3.00865 -19.00496,3.81553 -25.51697,1.42848 z m 65.25892,-0.61227 c -6.99804,-3.1786 -14.54354,-12.06803 -17.54742,-20.67277 -3.3428,-9.5756 -3.3439,-36.04614 -0.001,-45.61906 7.28697,-20.87304 19.53304,-29.64194 44.98496,-32.21188 l 9.97209,-1.0069 -0.36071,-9.94644 c -0.65684,-18.09703 -4.78478,-25.36144 -14.41197,-25.36144 -6.13529,0 -10.93113,4.59612 -13.92794,13.34792 l -2.50611,7.31875 -8.7424,-0.29294 c -12.37785,-0.41473 -14.57709,-1.85566 -13.48347,-8.83429 2.23254,-14.24629 12.97836,-29.42441 24.41295,-34.48248 19.17888,-8.48372 40.55256,-1.00039 48.50768,16.98348 4.11701,9.30719 4.95101,22.03903 5.36874,81.95956 l 0.39504,56.66666 -10.31304,0.38979 c -11.64961,0.44029 -11.35448,0.68857 -12.75984,-10.73451 l -0.8598,-6.98861 -2.90521,4.66667 c -9.28007,14.90657 -23.06965,20.61087 -35.82222,14.81849 z m 25.29054,-27.49332 c 5.90835,-5.47567 9.925,-16.11443 11.6568,-30.87495 2.08489,-17.77002 1.81704,-18.3374 -8.227,-17.42664 -4.38035,0.3972 -9.91764,1.86006 -12.30509,3.25079 -8.5974,5.00813 -13.29104,19.62935 -11.06551,34.47024 1.83899,12.26328 12.19567,17.75851 19.9408,10.58056 z m 89.22053,28.54323 c -5.53146,-1.60115 -14.17817,-11.52982 -16.36348,-18.7895 -0.95122,-3.16006 -2.23069,-11.74557 -2.84322,-19.0789 -1.64859,-19.73674 -1.52742,-114.95285 0.15028,-118.08765 1.17016,-2.18647 2.8546,-2.57902 11.06666,-2.57902 5.75611,0 10.33564,0.64922 11.28643,1.6 1.19384,1.19384 1.60372,16.00196 1.61468,58.33333 0.008,31.20334 0.38089,58.94838 0.82851,61.65564 1.66449,10.06727 9.98191,13.47134 17.48646,7.15667 7.73648,-6.50981 9.56071,-22.48081 9.62544,-84.26965 0.0396,-37.82361 0.29263,-42.95241 2.15396,-43.66667 3.06527,-1.17625 18.26627,-0.95344 20.23531,0.2966 1.32281,0.83979 1.60485,17.2645 1.33333,77.64625 l -0.34436,76.58116 -9.12001,0.39699 c -11.12735,0.48437 -12.85428,-0.70087 -12.9584,-8.89357 -0.0676,-5.32092 -0.29699,-5.82063 -1.66667,-3.63098 -8.54292,13.65736 -19.84157,18.98908 -32.48492,15.3293 z m 178.82225,-1.04991 c -6.99804,-3.1786 -14.54353,-12.06803 -17.54741,-20.67277 -3.3428,-9.5756 -3.34391,-36.04614 -10e-4,-45.61906 7.28698,-20.87304 19.53304,-29.64194 44.98496,-32.21188 l 9.9721,-1.0069 -0.36071,-9.94644 c -0.65684,-18.09703 -4.78479,-25.36144 -14.41197,-25.36144 -6.1353,0 -10.93114,4.59612 -13.92795,13.34792 l -2.50611,7.31875 -8.7424,-0.29294 c -12.37785,-0.41473 -14.57709,-1.85566 -13.48346,-8.83429 2.23253,-14.24629 12.97836,-29.42441 24.41294,-34.48248 19.17888,-8.48372 40.55256,-1.00039 48.50768,16.98348 4.11701,9.30719 4.95101,22.03903 5.36875,81.95956 l 0.39504,56.66666 -10.31304,0.38979 c -11.64961,0.44029 -11.35448,0.68857 -12.75984,-10.73451 l -0.8598,-6.98861 -2.90521,4.66667 c -9.28007,14.90657 -23.06966,20.61087 -35.82223,14.81849 z m 25.29055,-27.49332 c 5.90834,-5.47567 9.925,-16.11443 11.6568,-30.87495 2.08489,-17.77002 1.81704,-18.3374 -8.227,-17.42664 -4.38035,0.3972 -9.91764,1.86006 -12.3051,3.25079 -8.5974,5.00813 -13.29104,19.62935 -11.0655,34.47024 1.83898,12.26328 12.19566,17.75851 19.9408,10.58056 z m 200.11719,28.10559 c -6.35924,-2.33104 -14.09908,-10.53326 -16.64643,-17.64087 -1.40408,-3.91769 -1.94,-17.04547 -2.27754,-55.78989 -0.24276,-27.86667 -0.74562,-52.01667 -1.11744,-53.66667 -0.55503,-2.46293 -1.57855,-3 -5.71732,-3 -7.26451,0 -8.24127,-1.65929 -8.24127,-14 0,-6.62222 0.61893,-11.41893 1.6,-12.4 0.88,-0.88 4.09063,-1.6 7.13473,-1.6 h 5.53472 l 0.93762,-19 c 0.51568,-10.45 1.35505,-19.39736 1.86526,-19.88302 0.51022,-0.48566 4.72439,-1.44608 9.36482,-2.13428 12.15213,-1.8022 12.22952,-1.66439 12.22952,21.77921 v 19.23809 h 8.39996 c 4.7556,0 9.0942,0.69418 10,1.6 0.9811,0.98107 1.6,5.77778 1.6,12.4 0,6.62223 -0.6189,11.41894 -1.6,12.4 -0.9077,0.90775 -5.2551,1.6 -10.048,1.6 h -8.44806 l 0.38139,48.11669 0.38137,48.1167 3.74102,3.21664 c 2.94348,2.53089 5.25808,3.21664 10.85738,3.21664 8.4869,0 8.7349,0.39982 8.7349,14.0783 0,8.89295 -0.3089,10.06267 -3.1497,11.92398 -4.5917,3.00865 -19.00492,3.81553 -25.51693,1.42848 z M 60.63353,921.0522 c -0.360907,-0.94539 -0.501094,-47.91889 -0.311529,-104.38556 l 0.344664,-102.66666 h 27.333332 c 22.792923,0 28.464953,0.39504 34.145723,2.37817 19.19345,6.70035 28.9585,25.90612 28.9585,56.95516 0,22.96821 -4.33261,36.82641 -15.19894,48.61498 -2.88124,3.12578 -5.23862,6.63439 -5.23862,7.79691 0,1.16252 5.74063,21.70681 12.75696,45.654 7.01634,23.94717 12.43516,44.37892 12.04186,45.40388 -1.04847,2.73224 -23.82043,2.64901 -26.09807,-0.0953 -0.89418,-1.07743 -6.3514,-20.08118 -12.12716,-42.23058 -5.77576,-22.14938 -11.0271,-40.79734 -11.66965,-41.43989 -0.64256,-0.64256 -5.3088,-0.9888 -10.369442,-0.76944 l -9.201161,0.3988 -0.666666,42.66667 L 84.666664,922 l -11.68847,0.38556 c -8.599316,0.28367 -11.861897,-0.0687 -12.344664,-1.33333 z m 54.7246,-118.38556 c 7.39437,-6.90796 9.24917,-12.63748 9.28017,-28.66666 0.0233,-12.06663 -0.44437,-15.59688 -2.6383,-19.91396 -4.5996,-9.05078 -8.25475,-10.75271 -23.092995,-10.75271 H 85.999997 l -0.35965,29.96983 c -0.19781,16.4834 -0.04445,30.79121 0.340778,31.79512 0.542259,1.4131 3.53543,1.72101 13.254697,1.3635 11.210018,-0.41234 12.936318,-0.8187 16.122308,-3.79512 z m 562.30852,119.14329 c -1.30586,-0.54756 -1.66667,-17.26649 -1.66667,-77.229 v -76.53015 l 3.07127,-0.77083 c 1.68918,-0.42396 6.33918,-0.5854 10.33333,-0.35875 l 7.26207,0.41211 0.38941,10.33333 c 0.21419,5.68334 0.88267,10.33334 1.48553,10.33334 0.60286,0 2.09275,-2.60968 3.31087,-5.79928 4.53895,-11.88508 16.14104,-21.19695 23.50013,-18.86127 2.57957,0.81872 2.70752,1.74781 2.35427,17.09649 l -0.37355,16.23072 -5.33333,0.7397 c -10.12059,1.40366 -14.64192,5.89254 -18.72804,18.59364 -2.01147,6.25231 -2.47565,14.60562 -3.14893,56.66666 l -0.7897,49.33333 -10,0.25442 c -5.5,0.13992 -10.75,-0.0601 -11.66666,-0.44446 z m 182.66666,0 c -1.30582,-0.54753 -1.66667,-17.24304 -1.66667,-77.11174 0,-68.44859 0.21983,-76.49727 2.10905,-77.22223 3.89482,-1.49458 17.51696,-0.86652 18.96167,0.87426 0.76848,0.92596 1.59195,4.07596 1.82993,7 l 0.43268,5.31642 3.8447,-5.66794 c 12.31464,-18.15456 35.93621,-15.34918 44.83617,5.3249 2.07997,4.83166 3.35408,11.35979 4.10048,21.00971 1.62621,21.02446 1.49745,115.65437 -0.16159,118.75432 -1.17221,2.1903 -2.85577,2.57901 -11.17008,2.57901 -6.42517,0 -10.28612,-0.598 -11.23385,-1.73995 -0.97641,-1.1765 -1.569,-21.22292 -1.82993,-61.9039 -0.37662,-58.71685 -0.4532,-60.25447 -3.18443,-63.92672 -5.02111,-6.75113 -14.63479,-5.29493 -18.86008,2.85676 -4.18349,8.07107 -4.68101,14.28183 -5.50439,68.71381 l -0.837,55.33333 -10,0.25442 c -5.5,0.13992 -10.75,-0.0601 -11.66666,-0.44446 z M 258.33333,713.93255 c -0.55,-0.57403 -1,-1.74097 -1,-2.59321 0,-1.83076 14.41948,-20.67269 15.82053,-20.67269 0.52898,0 4.70144,-3.6367 9.2721,-8.08154 8.77396,-8.53241 17.84792,-15.0694 35.92624,-25.88168 6.06039,-3.6246 10.83143,-7.15253 10.60232,-7.83985 -0.2291,-0.68732 -9.3876,-3.47992 -20.35221,-6.20577 -22.21104,-5.52178 -35.62496,-9.91816 -52.94397,-17.35234 -19.41575,-8.33418 -38.32501,-20.53237 -38.32501,-24.7231 0,-2.63029 5.82202,-5.30229 18.76077,-8.61019 37.23885,-9.52041 80.8909,-11.59082 115.57256,-5.48158 9.23686,1.62709 13.65741,1.93773 13.63813,0.9584 -0.0157,-0.79696 -2.75895,-5.64902 -6.09613,-10.78235 -3.33718,-5.13333 -10.25471,-17.68167 -15.37228,-27.8852 -10.28006,-20.49661 -11.25758,-25.63915 -4.78831,-25.19053 10.47269,0.72624 36.08396,16.97605 53.96526,34.23984 6.79068,6.55617 12.5814,11.6763 12.86827,11.37809 0.28688,-0.29821 -0.28757,-5.0422 -1.27653,-10.5422 -0.98898,-5.5 -1.83227,-16.3 -1.87399,-24 l -0.0759,-14 -9.66094,-4.97808 c -26.50756,-13.65877 -42.02903,-33.69104 -47.84993,-61.7559 -2.43599,-11.74483 -2.64691,-15.93666 -1.83947,-36.55631 0.50161,-12.80967 1.5224,-24.4308 2.26843,-25.82476 0.74601,-1.39396 3.06701,-9.30772 5.15776,-17.58616 12.49929,-49.49173 34.12179,-79.62548 63.14711,-88.00362 22.74607,-6.56563 48.0904,2.76105 63.60512,23.40661 14.34024,19.08268 22.82149,45.48493 26.48221,82.43949 5.27475,53.24799 -5.60364,90.02831 -32.98313,111.51753 -9.3421,7.33229 -21.17741,13.74003 -30.94468,16.75371 l -7.37104,2.27432 -0.41449,7.15418 c -0.72855,12.57484 4.54324,42.55655 7.46615,42.46147 0.52158,-0.0169 5.44834,-3.96928 10.94834,-8.78292 19.65363,-17.201 47.74192,-33.38236 70.43244,-40.57539 7.40604,-2.34774 14.38847,-3.91446 15.51653,-3.48158 3.06126,1.17472 2.51622,4.90354 -2.20049,15.05438 -9.04244,19.46026 -18.58123,32.5663 -39.01868,53.61064 -12.04082,12.39838 -14.81317,14.50763 -27.39646,20.84369 -14.31891,7.21 -31.3133,13.27715 -33.46503,11.94731 -2.72893,-1.68657 -0.57785,-4.62749 11.62397,-15.89209 12.84518,-11.85852 23.87432,-24.43769 22.57003,-25.74199 -0.72832,-0.72832 -10.13288,5.58582 -28.06231,18.84078 -12.76732,9.4387 -15.4902,10.79238 -19.62229,9.75529 -1.73375,-0.43514 -10.50057,-7.41129 -19.48183,-15.50255 -8.98125,-8.09126 -16.62809,-14.71138 -16.99296,-14.71138 -1.33866,0 2.13099,5.0749 12.7931,18.71188 12.96892,16.58741 14.34369,19.09545 12.00912,21.90842 -1.78899,2.1556 -11.54952,1.80531 -21.3718,-0.767 -7.57853,-1.98469 -53.54501,-4.19553 -57.33333,-2.75755 l -3.33334,1.2653 3.33334,1.4928 c 3.62482,1.62334 25.30664,6.40088 52.66666,11.60497 31.57864,6.00651 31.88393,6.37324 13.03633,15.65987 -17.80257,8.7717 -46.77935,24.72017 -47.74091,26.276 -2.23423,3.61505 17.45372,-2.02368 44.9297,-12.86812 10.02381,-3.95628 19.17381,-7.19324 20.33333,-7.19324 5.48628,0 -0.33878,10.62849 -11.36376,20.73445 -7.19541,6.59563 -19.50793,15.03947 -28.73378,19.70544 -10.79669,5.46044 -40.18936,16.89159 -43.48273,16.91096 -1.638,0.009 -8.67818,1.24679 -15.64484,2.74922 -13.2291,2.853 -54.41535,5.16759 -56.33333,3.16583 z m 529.66665,-1.83225 c -29.46623,-4.65475 -50.02667,-10.37371 -69.9712,-19.46272 -18.86064,-8.59507 -36.25275,-22.15941 -45.47416,-35.46592 -6.19512,-8.93956 -3.17653,-9.06725 17.65303,-0.7468 10.15245,4.05544 24.75899,9.2332 32.45899,11.50615 7.7,2.27293 15.05,4.45873 16.33334,4.8573 1.28333,0.39859 2.33333,0.21564 2.33333,-0.40653 0,-1.59083 -19.75957,-13.02285 -43.33333,-25.07076 -13.42309,-6.86019 -20,-10.93649 -20,-12.39583 0,-1.76042 5.20353,-3.22296 27.33333,-7.6825 40.94193,-8.25051 47.76884,-9.94451 51.02423,-12.66092 2.95924,-2.46928 2.92393,-2.48328 -6.35756,-2.52074 -10.75134,-0.0435 -50.02536,3.26283 -62.57671,5.26791 -9.49518,1.51687 -12.75662,0.85036 -12.75662,-2.60695 0,-2.34389 13.01349,-21.04883 22.11089,-31.7811 2.67412,-3.15467 4.57248,-6.02531 4.21859,-6.37921 -0.35391,-0.3539 -5.97282,4.03062 -12.48647,9.74338 -20.61379,18.07919 -23.59115,20.37223 -26.41635,20.34475 -1.518,-0.0148 -8.16,-3.95156 -14.76,-8.74843 -21.34014,-15.50998 -35.53704,-24.79978 -36.44564,-23.84838 -0.48824,0.51124 8.56231,10.06929 20.11231,21.24012 11.73944,11.35406 21,21.36405 21,22.69946 0,6.05351 -25.00456,-2.09001 -40.61028,-13.22603 -23.36781,-16.67491 -48.6876,-47.01031 -61.60968,-73.81395 -5.86422,-12.16391 -5.34669,-14.24012 3.23532,-12.97912 21.08702,3.09842 64.62476,27.25048 87.21628,48.3822 l 6.25533,5.85113 1.45635,-5.09841 c 2.22835,-7.80108 6.72335,-34.74551 6.72335,-40.3018 v -4.93839 l -9.66667,-3.07417 c -20.41363,-6.49191 -33.83436,-16.83871 -41.80215,-32.22761 -3.29471,-6.36342 -3.80374,-8.99863 -4.27679,-22.14098 -0.29534,-8.20484 0.10693,-28.00484 0.89377,-44 0.78692,-15.99517 2.39765,-51.58213 3.57941,-79.08213 1.18176,-27.5 2.70113,-51.37742 3.37639,-53.06093 1.135,-2.82976 1.90754,-3.03116 10.22856,-2.66667 l 9.00081,0.39427 0.69232,82 c 0.38077,45.1 0.83077,82.15 1,82.33333 0.99424,1.07712 6.99099,0.0644 7.89565,-1.33333 0.59328,-0.91667 1.3787,-37.96667 1.74536,-82.33333 l 0.66667,-80.66667 7.87632,-0.40613 c 5.39861,-0.27836 8.22339,0.14106 8.97959,1.33333 0.60678,0.95671 1.11245,37.76947 1.12368,81.80613 0.0155,60.47315 0.41196,80.45821 1.62041,81.66667 2.08391,2.0839 5.96477,2.04834 7.27547,-0.0667 0.56806,-0.91667 0.86433,-37.18296 0.65836,-80.59174 -0.26352,-55.53676 0.0603,-79.73752 1.09274,-81.66667 1.20283,-2.24751 2.76622,-2.74159 8.67499,-2.74159 4.30199,0 7.64259,0.67191 8.28641,1.66667 0.59328,0.91667 1.3787,37.90148 1.74536,82.18848 0.60647,73.25001 0.8673,80.64833 2.88824,81.92268 1.61183,1.01638 2.80116,0.91984 4.33334,-0.35174 1.8837,-1.56334 2.11176,-10.3625 2.11176,-81.4803 0,-43.85023 0.36418,-80.67676 0.80932,-81.83673 1.24544,-3.24559 18.73851,-3.04632 19.68927,0.22428 0.37307,1.28333 1.33075,17.03333 2.12819,35 0.79743,17.96666 2.39321,51.86666 3.54617,75.33333 3.11628,63.42654 3.03602,75.69093 -0.5541,84.66666 -5.31383,13.28519 -16.41073,25.15225 -31.51733,33.70472 l -5.23183,2.96195 -0.38548,14 c -0.21201,7.7 -1.19683,18.65 -2.18847,24.33333 -0.99164,5.68333 -1.52512,10.33333 -1.1855,10.33333 0.33961,0 5.7904,-4.98672 12.11285,-11.08158 18.8171,-18.13974 51.31813,-37.7093 58.22538,-35.05874 1.59332,0.61143 1.94315,1.80012 1.32024,4.48608 -1.44124,6.21464 -14.90761,32.96863 -23.37753,46.44478 -8.58169,13.65398 -9.42297,15.8099 -5.72452,14.67002 20.18267,-6.22037 78.86921,-7.5609 105,-2.39842 19.76365,3.90457 40.58936,10.51829 41.62584,13.21933 1.46206,3.81009 -15.62514,15.18436 -36.94346,24.59178 -14.44415,6.37398 -54.97325,20.69522 -64.92539,22.94186 -3.80034,0.85789 -7.30087,1.951 -7.77899,2.4291 -0.47811,0.47812 4.73125,4.61186 11.57636,9.18608 19.22577,12.8476 32.77196,23.83792 44.62992,36.20924 10.6564,11.11776 13.86286,16.19962 11.61484,18.40811 -2.48708,2.44333 -23.81695,2.47205 -39.13245,0.0527 z M 441.542,554.99998 c -0.67016,-1.28333 -1.64125,-7.53674 -2.15799,-13.89649 -1.06408,-13.09653 -1.04048,-13.13396 11.28264,-17.89432 7.65759,-2.95808 22.12776,-12.19241 29.41631,-18.77239 22.72956,-20.51986 33.39576,-53.25323 31.39768,-96.35598 -1.65991,-35.80801 -8.27251,-66.2086 -18.85104,-86.66529 -10.05889,-19.4518 -20.81165,-30.39016 -37.96295,-38.61819 -9.69233,-4.64973 -10.47174,-4.79733 -25.33333,-4.79733 -15.20293,0 -15.42973,0.0463 -26.66872,5.44627 -25.3786,12.19354 -43.70781,38.00945 -55.24186,77.80573 -14.63563,50.4978 -14.90551,89.33638 -0.82052,118.08133 7.7416,15.7992 25.30209,33.38294 41.01441,41.06869 6.46646,3.16311 6.94456,4.06079 7.96124,14.94819 0.60042,6.42984 0.318,8.40968 -1.40348,9.83837 -1.87004,1.55201 -3.56806,0.72183 -12.83471,-6.27504 -13.73468,-10.37051 -28.62796,-18.56016 -40.55161,-22.29889 -11.24393,-3.52562 -13.22029,-5.85683 -19.47333,-22.96972 -11.22266,-30.71341 -16.54023,-61.478 -16.53195,-95.64493 0.007,-26.37157 1.34716,-37.34407 7.49453,-61.33333 12.84054,-50.10843 43.4535,-94.82627 87.056,-127.16699 27.92073,-20.70929 67.58784,-37.86708 102.09406,-44.16024 91.32318,-16.6553 184.40065,22.65642 238.52494,100.74216 18.94872,27.33752 33.11715,63.75437 38.87452,99.9184 2.24155,14.07999 2.23219,54.07296 -0.0164,70 -3.21544,22.77545 -10.51213,49.42192 -18.26256,66.69218 -3.16569,7.05409 -4.16212,8.12684 -8.67813,9.34288 -12.72407,3.42624 -33.83945,14.99531 -50.30524,27.56213 -3.17282,2.42155 -6.92282,4.4028 -8.33333,4.4028 -2.30081,0 -2.56453,-1.02064 -2.56453,-9.9252 v -9.92518 l 9.99205,-7.52024 c 5.49564,-4.13614 12.11278,-9.99783 14.70478,-13.026 6.20282,-7.2466 12.08944,-19.21228 14.01519,-28.48852 1.60231,-7.71831 1.68057,-5.41471 -4.99115,-146.92184 l -2.28541,-48.47365 -3.24496,-1.23373 c -4.01011,-1.52464 -116.85598,-0.9339 -118.40819,0.61986 -0.60743,0.60802 -1.50215,11.40802 -1.98828,24 -1.54835,40.10618 -5.04511,114.60807 -5.76807,122.89451 -0.38388,4.4 -0.72164,17.3 -0.75059,28.66666 -0.0597,23.46863 1.04314,28.68824 8.73847,41.35611 7.03557,11.58181 24.54285,24.08862 39.93912,28.53161 l 5.38037,1.55264 0.35115,7.94649 c 0.42606,9.64174 -2.23695,21.10887 -5.01782,21.60714 -1.1,0.19708 -7.63752,-3.85092 -14.52782,-8.99558 -18.09024,-13.5071 -44.95269,-27.84113 -64.13884,-34.22502 -10.85665,-3.61239 -28.77056,-3.25398 -40,0.8003 -18.47267,6.66939 -47.55533,22.63342 -64.4587,35.38263 -12.18928,9.19365 -14.69451,10.15224 -16.66595,6.37701 z"
       id="path3740"
       inkscape:connector-curvature="0" />
    <path
       style="fill:#d4b593;stroke-width:1.33333325"
       d="m 211.33333,924.14987 c -22.62712,-5.8667 -35.31511,-33.70596 -35.32958,-77.5182 -0.0145,-44.07899 12.86368,-74.54565 34.12276,-80.72584 19.84003,-5.76765 36.70578,8.07468 43.8261,35.96967 2.32668,9.11517 5.44454,42.29766 4.26352,45.37538 -0.69092,1.80049 -4.7762,2.08243 -30.1743,2.08243 h -29.37517 v 11.2677 c 0,25.80382 7.57652,40.7323 20.67249,40.7323 7.01208,0 13.09155,-6.37671 15.9783,-16.75951 1.20914,-4.34893 2.43854,-8.65716 2.73198,-9.57383 0.62334,-1.94718 4.55158,-2.0823 11.78024,-0.40517 7.80086,1.80988 8.07346,2.58449 4.93516,14.02365 -6.31757,23.02778 -16.59465,34.24143 -32.90474,35.90344 -3.58972,0.36579 -8.32676,0.19838 -10.52676,-0.37202 z m 24.94068,-97.63859 c 0.27292,-0.81879 0.0531,-6.07351 -0.48871,-11.67716 -1.75139,-18.11698 -7.68385,-26.83414 -18.26201,-26.83414 -8.6797,0 -14.82654,9.23048 -17.6889,26.56274 -2.29272,13.88291 -2.89012,13.43725 18.01264,13.43725 12.01616,0 18.09443,-0.49105 18.42698,-1.48869 z m 71.34931,97.43888 c -7.77101,-1.94124 -12.25966,-4.712 -17.44232,-10.76676 -4.86834,-5.68756 -9.84409,-18.24159 -10.48705,-26.45925 -0.30144,-3.85275 0.22627,-4.89694 3.21556,-6.36272 1.96689,-0.96446 5.82171,-1.89034 8.56624,-2.05751 4.86816,-0.29652 5.03952,-0.14737 7.01483,6.10532 1.11361,3.52511 3.88892,8.5658 6.16734,11.20155 3.61163,4.17802 5.07396,4.86869 11.409,5.38845 6.08574,0.49932 7.88843,0.1052 11.09464,-2.42541 7.78574,-6.1452 9.81646,-19.08232 4.47547,-28.51194 -2.47469,-4.36913 -5.48632,-6.59533 -17.59473,-13.00608 -16.72172,-8.85324 -23.25432,-14.58646 -27.62658,-24.24597 -2.6475,-5.84908 -3.0824,-8.97321 -3.0824,-22.1432 0,-14.11676 0.30776,-15.99985 3.87896,-23.73397 10.81051,-23.41227 35.2885,-29.82789 51.04886,-13.37979 5.02896,5.24842 11.06569,17.84015 12.04177,25.11736 0.65291,4.86782 0.43304,5.26499 -3.92176,7.08455 -10.3024,4.30461 -9.81727,4.47463 -14.35351,-5.03019 -4.42476,-9.27126 -8.67605,-12.72462 -15.66476,-12.72462 -5.43981,0 -9.15112,3.15016 -11.76026,9.98212 -3.15418,8.25909 -2.06158,17.01582 2.74972,22.03773 2.01138,2.09944 9.68253,6.98497 17.04697,10.85674 16.02435,8.42463 25.07601,16.81548 28.11021,26.05803 8.29432,25.26555 -0.82144,55.2014 -19.56813,64.26109 -6.69097,3.23355 -18.33091,4.49991 -25.31807,2.75447 z m 100.53616,-0.0853 c -8.88364,-2.68938 -14.25424,-8.36451 -17.80769,-18.8175 -0.94211,-2.77134 -1.77008,-23.97345 -2.25383,-57.71397 l -0.76464,-53.33333 -6.66666,-0.66667 -6.66667,-0.66666 -0.39169,-10.45974 c -0.46516,-12.42169 0.58505,-14.20698 8.35733,-14.20698 h 5.63912 l 0.85629,-11 c 0.47096,-6.05 0.85989,-14.71459 0.86429,-19.25464 0.004,-4.54006 0.55695,-8.59392 1.2279,-9.00859 0.67094,-0.41468 4.87094,-1.13556 9.33333,-1.60197 l 8.11343,-0.84802 v 18.74756 c 0,10.31115 0.36418,19.69663 0.80932,20.8566 0.61516,1.6031 2.77425,2.11395 9,2.12947 4.50486,0.0107 8.96653,0.51263 9.91481,1.11421 1.24103,0.78731 1.61463,4.2374 1.33333,12.31291 l -0.3908,11.21913 -9.65586,0.39154 c -9.03418,0.36632 -9.70955,0.60534 -10.48939,3.71252 -0.45844,1.82654 -0.58069,22.95036 -0.27168,46.94179 0.48731,37.83466 0.86356,44.19038 2.83652,47.91463 2.95161,5.57161 5.90419,7.03952 14.15943,7.03952 h 6.75432 v 11.85735 c 0,9.06146 -0.45036,12.03017 -1.90998,12.59028 -4.11812,1.58026 -17.65894,2.04366 -21.93053,0.7505 z m 66.00036,-0.1184 c -25.02843,-6.90179 -30.20207,-61.77979 -7.94815,-84.30772 6.02268,-6.09684 16.2154,-10.037 30.68988,-11.86367 l 13.09841,-1.65303 -0.23456,-11.17665 c -0.38072,-18.14064 -5.09921,-26.74538 -14.66604,-26.74538 -8.82083,0 -13.94214,4.564 -17.17434,15.3054 l -1.61325,5.36126 -7.62143,-0.35716 c -10.61643,-0.49752 -13.10365,-2.03856 -11.94724,-7.40221 4.86319,-22.55641 19.14307,-35.90293 38.5902,-36.06788 20.89194,-0.17721 32.56896,11.77111 35.25137,36.0704 0.71381,6.46627 1.41352,36.05685 1.55491,65.75685 l 0.25705,54 h -9.19833 -9.19834 l -1.23082,-9.70084 c -0.67696,-5.33545 -1.713,-9.53545 -2.30231,-9.33333 -0.58931,0.20213 -3.03543,3.64414 -5.43583,7.64892 -7.50162,12.51554 -18.77873,17.79952 -30.87118,14.46492 z m 24.68193,-27.76955 c 6.91547,-7.26965 10.73795,-19.93933 10.9788,-36.38929 l 0.17941,-12.25428 -6.58901,-0.41683 c -12.69092,-0.80285 -24.20808,6.80216 -27.33081,18.04705 -1.78488,6.42731 -1.79847,19.5968 -0.0268,25.97579 1.74003,6.26511 6.90395,10.39399 12.99956,10.39399 3.74445,0 5.72349,-1.08295 9.78886,-5.35655 z m 87.15821,27.42168 c -6.61796,-2.40517 -11.90282,-8.51705 -14.97813,-17.32203 -2.12759,-6.09156 -2.3552,-13.0571 -2.3552,-72.07656 v -65.33333 l 8.44975,-0.39997 c 5.08186,-0.24056 9.2005,0.22309 10.33333,1.16325 1.56907,1.30222 1.88483,11.16524 1.89103,59.06664 0.004,35.45709 0.53564,59.40529 1.38514,62.46411 3.25391,11.71622 17.45132,12.29928 23.31636,0.95753 4.21279,-8.14661 5.06088,-18.39872 5.83905,-70.58489 l 0.78534,-52.66667 h 10 10 v 76 76 h -9.33334 -9.33333 l -0.39696,-8.33333 c -0.21832,-4.58334 -0.81832,-8.32143 -1.33333,-8.30688 -0.515,0.0145 -2.73638,3.09212 -4.93638,6.83902 -6.9012,11.75372 -18.19749,16.58023 -29.33333,12.53311 z m 181.49318,0.34775 c -25.02842,-6.90179 -30.20206,-61.77979 -7.94814,-84.30772 6.02268,-6.09684 16.2154,-10.037 30.68988,-11.86367 l 13.09841,-1.65303 -0.23456,-11.17665 c -0.38072,-18.14052 -5.09921,-26.74526 -14.66604,-26.74526 -8.82084,0 -13.94215,4.564 -17.17435,15.3054 l -1.61325,5.36126 -7.62143,-0.35716 c -10.61642,-0.49752 -13.10365,-2.03856 -11.94724,-7.40221 4.86319,-22.55641 19.14307,-35.90293 38.5902,-36.06788 20.89195,-0.17721 32.56896,11.77111 35.25137,36.0704 0.71382,6.46627 1.41352,36.05685 1.55491,65.75685 l 0.25705,54 h -9.19833 -9.19833 l -1.23083,-9.70084 c -0.67696,-5.33545 -1.713,-9.53545 -2.3023,-9.33333 -0.58931,0.20213 -3.03543,3.64414 -5.43583,7.64892 -7.50163,12.51554 -18.77873,17.79952 -30.87119,14.46492 z m 24.68194,-27.76955 c 6.91546,-7.26965 10.73794,-19.93933 10.9788,-36.38929 l 0.17941,-12.25416 -6.58901,-0.41683 c -12.69092,-0.80285 -24.20808,6.80216 -27.33082,18.04705 -1.78488,6.42731 -1.79846,19.5968 -0.0268,25.97579 1.74003,6.26511 6.90395,10.39399 12.99956,10.39399 3.74446,0 5.7235,-1.08295 9.78887,-5.35655 z m 199.98436,27.88801 c -8.88364,-2.68937 -14.25424,-8.3645 -17.80769,-18.81749 -0.94211,-2.77135 -1.77008,-23.97345 -2.25383,-57.71397 l -0.76464,-53.33333 -6.66666,-0.66667 -6.66667,-0.66667 -0.39169,-10.45973 c -0.46516,-12.42164 0.58505,-14.20693 8.35733,-14.20693 h 5.63912 l 0.85629,-11 c 0.47096,-6.05 0.8599,-14.71459 0.8643,-19.25464 0.004,-4.54006 0.55694,-8.59392 1.22789,-9.00859 0.67095,-0.41468 4.87095,-1.13556 9.33333,-1.60197 l 8.11343,-0.84802 v 18.74756 c 0,10.31115 0.36419,19.69663 0.80932,20.8566 0.61516,1.6031 2.77425,2.11395 9.00001,2.12947 4.5049,0.0107 8.9665,0.51263 9.9148,1.11421 1.241,0.78731 1.6146,4.2374 1.3333,12.31291 l -0.3908,11.21913 -9.6558,0.39154 c -9.0342,0.36632 -9.70958,0.60534 -10.48942,3.71252 -0.45844,1.82654 -0.58069,22.95036 -0.27168,46.94179 0.48731,37.83466 0.86356,44.19038 2.83652,47.91463 2.95162,5.57161 5.90418,7.03952 14.15938,7.03952 H 1016 v 11.85735 c 0,9.06146 -0.4504,12.03017 -1.91,12.59028 -4.1181,1.58026 -17.65895,2.04366 -21.93054,0.7505 z M 61.968426,919.72309 c -0.361828,-0.94772 -0.502745,-47.32312 -0.313149,-103.05645 l 0.344721,-101.33333 27.333333,0.0653 c 25.672379,0.0615 27.761079,0.25471 34.372569,3.18107 9.39342,4.15769 17.87114,13.71116 21.68186,24.43312 3.60733,10.14968 5.14728,38.77588 2.71596,50.48744 -2.12379,10.23028 -8.13084,22.10871 -14.6597,28.98829 -3.42648,3.61056 -5.26593,6.64927 -4.84272,8 7.85115,25.05775 25.83763,88.80116 25.30171,89.66829 -0.88825,1.43723 -22.827,1.5841 -23.70794,0.1587 -0.34594,-0.55974 -5.51463,-19.60974 -11.48599,-42.33334 -5.97135,-22.72358 -11.33064,-41.79254 -11.90952,-42.37544 -0.57888,-0.58289 -5.7956,-0.88289 -11.592706,-0.66666 l -10.54019,0.3932 -0.666667,42.66666 -0.666666,42.66667 -10.353519,0.38979 c -7.526759,0.28336 -10.533131,-0.0807 -11.011386,-1.33334 z M 114.80282,804.99804 c 2.54372,-1.68546 5.99229,-5.92464 7.86384,-9.66666 2.97596,-5.95019 3.33334,-8.30867 3.33334,-21.99807 0,-14.27967 -0.24884,-15.75663 -3.6212,-21.49316 -5.15796,-8.77396 -9.9401,-10.7024 -25.353131,-10.22388 l -12.359005,0.38371 -0.358659,31.30574 c -0.197262,17.21816 -0.06609,32.06816 0.291487,33 0.461847,1.20356 4.273757,1.69426 13.161481,1.69426 10.746697,0 13.150337,-0.4234 17.041847,-3.00194 z m 563.47224,115.49924 c -0.51796,-0.51796 -0.94175,-34.73032 -0.94175,-76.02745 v -75.08572 l 3.10695,-0.77979 c 1.70883,-0.42889 5.75883,-0.59032 9,-0.35873 l 5.89305,0.42105 0.35815,11.33334 c 0.19699,6.23333 0.67952,12.21717 1.07229,13.29742 0.42684,1.17395 3.23292,-3.11718 6.97519,-10.66666 5.73148,-11.56246 6.79683,-12.89652 12.59574,-15.77288 9.89428,-4.90772 10.48363,-4.11838 10.04254,13.45045 l -0.37724,15.025 -5.33334,0.72817 c -6.95654,0.94979 -11.50934,4.07427 -14.9501,10.25992 -5.74153,10.32187 -6.12525,13.91907 -6.93484,65.01191 l -0.78172,49.33333 -9.39159,0.3862 c -5.16537,0.2124 -9.81537,-0.0376 -10.33333,-0.55556 z m 182.66666,0 c -0.51796,-0.51796 -0.94175,-34.67756 -0.94175,-75.91021 0,-83.84741 -0.94798,-76.58709 10,-76.58709 9.36008,0 10,0.60638 10,9.47598 0,4.32154 0.45,7.8373 1,7.81279 0.55,-0.0245 2.8,-3.15835 5,-6.96405 11.4391,-19.78816 34.05131,-18.24556 43.88247,2.99365 2.70605,5.84613 2.7842,7.88612 2.7842,72.68162 v 66.66667 h -9.33333 -9.33334 l -0.81114,-58 c -0.52795,-37.74997 -1.35596,-59.96141 -2.37159,-63.61785 -4.14828,-14.9346 -20.99659,-12.34581 -26.36632,4.05125 -1.91849,5.85831 -2.37469,15.25319 -3.02195,62.23327 l -0.76233,55.33333 -9.39159,0.3862 c -5.16537,0.2124 -9.81537,-0.0376 -10.33333,-0.55556 z M 263.66666,713.70607 c -3.24012,-0.34587 -5,-1.21599 -5,-2.47208 0,-2.80253 11.25179,-16.279 19.19117,-22.98562 3.74485,-3.16339 8.00883,-7.14394 9.47549,-8.84566 2.51598,-2.91921 18.46787,-13.8142 36.82004,-25.14774 5.39902,-3.33422 7.77218,-5.52944 6.90986,-6.39176 -0.72238,-0.72238 -8.15712,-2.84511 -16.52166,-4.71719 -8.36453,-1.87207 -23.30824,-6.05229 -33.20824,-9.28937 -29.76827,-9.7336 -63.51441,-27.85658 -62.4083,-33.51567 0.53939,-2.75965 11.32248,-6.34353 31.07497,-10.32813 29.75729,-6.00281 68.00103,-7.67616 91.33333,-3.99627 21.64536,3.41384 25.33334,3.7606 25.33334,2.38194 0,-0.71843 -3.06216,-6.352 -6.80479,-12.51906 -9.57716,-15.78106 -23.86188,-44.94416 -23.86188,-48.71541 0,-4.2714 2.72596,-4.07984 13.33333,0.93701 14.37144,6.7971 30.34262,18.28935 44.89071,32.30168 7.57677,7.29775 13.77585,12.44256 13.77573,11.43294 -1.3e-4,-1.00963 -0.89005,-6.48582 -1.97761,-12.1693 -1.08756,-5.68348 -2.11811,-16.65946 -2.29011,-24.39108 -0.172,-7.73161 -0.63207,-14.5341 -1.02239,-15.11664 -0.39032,-0.58253 -4.98626,-3.29229 -10.21321,-6.02169 -13.79558,-7.20375 -25.739,-17.62949 -33.51601,-29.2571 -12.17285,-18.19992 -15.813,-34.9716 -14.45984,-66.62255 0.95359,-22.30485 2.0132,-27.53197 12.30908,-60.72082 11.70904,-37.74419 31.20048,-62.04154 56.30834,-70.19204 11.14754,-3.6187 29.10643,-2.37223 39.46603,2.73921 15.83384,7.81245 29.72547,24.26211 37.92901,44.91333 12.56859,31.63959 17.20375,89.50675 9.53213,119.00299 -3.51362,13.50941 -10.07847,27.33797 -17.27759,36.39452 -9.2089,11.58482 -28.21903,24.18234 -42.7876,28.35421 -9.7539,2.79312 -9.79927,2.88209 -8.9104,17.4722 0.80017,13.13418 5.50902,36.50094 7.61836,37.80458 0.63688,0.39362 5.83812,-3.55701 11.55833,-8.77917 12.51269,-11.42324 28.31241,-22.05443 46.6538,-31.39204 21.91074,-11.1548 39.0936,-15.83725 40.11125,-10.93064 0.96068,4.63184 -12.74535,29.51431 -24.09499,43.743 -16.73312,20.97781 -31.24305,34.12957 -45.44131,41.18785 -13.79348,6.85705 -30.31806,12.43045 -32.0073,10.7954 -0.66942,-0.64795 6.03527,-8.23783 15.51392,-17.56217 16.14654,-15.88367 22.15551,-23.04168 20.62647,-24.57072 -1.17012,-1.17012 -5.83181,1.74935 -24.25753,15.19171 -19.62368,14.31631 -21.95658,15.60486 -26.27228,14.51122 -1.70408,-0.43183 -10.78883,-7.70797 -20.18834,-16.16921 -9.39949,-8.46124 -17.6649,-15.38408 -18.36757,-15.38408 -2.19322,0 2.122,6.84233 13.46465,21.34989 18.06196,23.10175 17.88214,24.35627 -2.97013,20.71975 -15.88224,-2.76978 -63.36398,-4.47171 -67.05936,-2.40368 -4.46505,2.49877 8.2573,5.97396 55.35576,15.12074 11.36667,2.20747 22.01667,4.29495 23.66667,4.63884 1.65,0.3439 3,1.16187 3,1.81772 0,0.65586 -9.82051,6.31022 -21.82335,12.56526 -38.32284,19.97117 -47.49478,26.25037 -36.64508,25.08757 4.76687,-0.51088 33.4162,-10.17664 50.08071,-16.89632 6.36492,-2.56653 12.35598,-4.66644 13.31349,-4.66644 7.53967,0 -9.05647,19.29792 -25.90627,30.12371 -16.63446,10.68744 -44.87341,22.44649 -61.01406,25.40704 -29.17089,5.35055 -50.38176,7.45173 -62.33877,6.17534 z m 533.66665,-1.28081 c -1.83333,-0.2997 -10.83333,-1.77533 -20,-3.27921 -30.78577,-5.0507 -62.30977,-16.66386 -80.5329,-29.66762 -4.57687,-3.26598 -11.72267,-9.61173 -15.87955,-14.10166 -13.87251,-14.98396 -13.06868,-16.97262 3.99661,-9.88758 14.0903,5.84991 30.26856,11.43904 46.01029,15.89526 13.15599,3.72424 13.07222,3.71097 13.07222,2.07121 0,-2.12692 -18.31986,-13.02611 -42.16452,-25.08532 -12.72795,-6.43703 -23.1478,-12.45369 -23.15527,-13.37036 -0.008,-0.91667 0.18622,-1.66667 0.43035,-1.66667 1.9802,0 57.09944,-11.34437 65.33158,-13.44622 10.39395,-2.65382 16.89119,-5.74659 16.89119,-8.04046 0,-0.64898 -3.45,-1.17237 -7.66667,-1.16305 -9.94432,0.022 -51.52715,3.52788 -64.09602,5.40405 -10.5592,1.57619 -13.57064,1.12458 -13.57064,-2.03516 0,-1.7445 14.99055,-22.58998 26.18688,-36.41481 4.06617,-5.02076 3.25121,-7.37436 -1.19213,-3.44289 -26.97306,23.86569 -36.0382,31.13854 -38.81224,31.13854 -1.86936,0 -10.64278,-5.45025 -21.66218,-13.45705 -37.61916,-27.33444 -41.07991,-26.57108 -11.52033,2.54108 11.91667,11.73631 21.66667,22.07719 21.66667,22.97973 0,3.17571 -13.52818,0.24247 -24.98386,-5.41712 -19.92006,-9.84133 -40.18533,-28.59967 -58.31634,-53.97998 -9.12315,-12.77084 -20.6998,-33.55369 -20.6998,-37.16108 0,-3.107 4.62657,-2.76752 17.59784,1.29124 22.09457,6.91349 53.51517,25.54448 74.06993,43.92011 l 8.33444,7.45085 1.31593,-3.46117 c 2.54435,-6.69212 6.63882,-29.66668 6.99174,-39.23146 l 0.35678,-9.66946 -9.33333,-3.0612 c -15.61097,-5.12016 -21.17433,-8.12079 -29.71235,-16.02548 -8.90369,-8.24324 -14.14436,-17.31687 -16.20226,-28.05233 -1.60296,-8.36222 6.13022,-184.45249 8.2123,-187 0.74919,-0.91667 3.93962,-1.66667 7.08986,-1.66667 10.8992,0 9.94578,-7.8188 9.94578,81.56364 0,52.55832 0.47283,80.82849 1.38024,82.52401 1.54284,2.88283 6.57027,3.42851 9.01976,0.97902 1.20874,-1.20874 1.6,-21.07514 1.6,-81.23809 0,-88.72016 -0.53461,-83.82858 9.16191,-83.82858 2.73428,0 5.69143,0.72 6.57143,1.6 1.20897,1.20898 1.6,21.19852 1.6,81.79335 0,75.99669 0.1276,80.30882 2.43832,82.4 3.04414,2.75492 4.79678,2.78108 7.46644,0.11146 1.85837,-1.85837 2.09524,-11.17345 2.09524,-82.39999 0,-60.68148 0.39097,-80.69574 1.6,-81.90476 2.07242,-2.07243 12.0609,-2.07243 14.13333,0 1.20897,1.20897 1.6,21.19852 1.6,81.79334 0,78.15312 0.0669,80.25396 2.63251,82.57573 2.46514,2.23094 2.84658,2.24211 6,0.17592 l 3.36749,-2.20653 v -80.36925 c 0,-60.73165 0.39095,-80.76021 1.6,-81.96927 1.74153,-1.74153 12.80507,-2.16225 15.24109,-0.57958 1.82005,1.18249 2.65631,13.14036 5.19691,74.31292 1.06598,25.66666 2.605,58.66666 3.42002,73.33333 1.82446,32.83185 1.18071,41.08088 -4.0839,52.3311 -4.87202,10.41124 -16.21824,22.01057 -27.08472,27.68891 l -7.6164,3.97998 -0.0107,10.66667 c -0.0107,9.74088 -2.56658,31.06309 -4.82737,40.26199 -0.76085,3.09584 1.47097,1.4474 12.99115,-9.59532 19.69929,-18.88286 44.70178,-34.9964 55.4595,-35.7424 3.35152,-0.23242 3.68676,0.13352 3.42849,3.7424 -0.35465,4.9557 -14.13308,32.1434 -23.82606,47.01374 -3.97156,6.09291 -7.22102,11.65738 -7.22102,12.36547 0,1.79871 2.90068,1.61905 16.66667,-1.03224 17.4612,-3.36297 75.13624,-3.28841 91.33333,0.11813 24.95073,5.24752 41.33333,10.64983 41.33333,13.63004 0,2.71777 -14.45893,11.99237 -31.14704,19.97908 -14.91834,7.13972 -61.81757,23.85687 -72.55937,25.86365 -9.96665,1.86198 -9.59836,2.64023 6.08458,12.85726 21.34445,13.90538 39.14121,28.75828 49.92131,41.66357 7.0017,8.382 7.82966,11.50506 3.36719,12.70096 -3.23721,0.86754 -20.88981,0.82218 -26.33333,-0.0677 z M 442.75704,552.90437 c -0.64732,-1.70257 -1.38248,-7.53741 -1.63367,-12.96629 l -0.45672,-9.8707 13.34464,-6.70036 c 24.19512,-12.14842 37.19126,-24.6029 47.34003,-45.36703 2.86741,-5.86667 6.5864,-16.06667 8.26441,-22.66667 2.71247,-10.6688 3.03975,-15.03219 2.95017,-39.33333 -0.20414,-55.39057 -11.26797,-93.44812 -34.36547,-118.21111 -25.67435,-27.52562 -63.33908,-29.69405 -93.06882,-5.35813 -23.08278,18.89492 -40.75077,58.76609 -48.54113,109.54229 -4.53665,29.56919 -0.5384,62.89028 9.68258,80.69361 9.16828,15.96971 25.83508,32.02068 41.39359,39.86415 l 5.66667,2.85672 v 9.30622 c 0,5.11844 -0.46285,9.30624 -1.02855,9.30624 -0.5657,0 -5.2157,-3.05776 -10.33333,-6.79501 -14.86108,-10.85261 -26.42044,-17.20464 -39.62953,-21.77696 l -12.31725,-4.26361 -4.44047,-10.58222 C 311.21091,466.3288 303.3048,416.50201 306.46131,380.06363 c 3.78976,-43.74868 15.39085,-77.25997 39.48708,-114.06364 10.06313,-15.37006 40.44708,-45.91086 58.0516,-58.35128 14.416,-10.18722 44.50041,-25.58856 61.43817,-31.45248 22.8446,-7.9089 55.20505,-13.52957 77.89516,-13.52957 34.9034,0 75.69883,10.16017 107.0357,26.65743 70.35849,37.04012 114.64853,99.07338 127.0937,178.00923 2.36495,15.00015 2.02372,54.17157 -0.61981,71.15131 -3.70888,23.8226 -11.60745,51.68706 -18.5372,65.39526 -2.62403,5.19077 -3.83188,6.14501 -10.30573,8.14177 -15.15312,4.67378 -33.64452,14.83444 -47.55773,26.13207 -3.05675,2.48211 -6.20675,4.51292 -7,4.51292 -0.88643,0 -1.44227,-3.34507 -1.44227,-8.67972 0,-9.62245 -0.71307,-8.6032 13.00159,-18.58445 9.60038,-6.98696 18.80887,-18.77834 23.24853,-29.76947 2.8655,-7.09405 3.07022,-9.37474 2.89929,-32.29969 -0.1012,-13.56667 -0.82908,-37.86667 -1.6176,-54 -0.78853,-16.13333 -2.41672,-49.73333 -3.6182,-74.66666 -1.22233,-25.36616 -2.78403,-46.06743 -3.54565,-47 -1.98054,-2.4251 -121.42742,-2.4251 -123.39077,0 -0.74213,0.91666 -1.69383,10.96666 -2.11485,22.33333 -0.42104,11.36667 -1.67503,39.56667 -2.78664,62.66667 -4.62011,96.00879 -4.80614,102.14907 -3.39596,112.09217 1.5266,10.76389 7.17553,22.39433 14.88847,30.65345 7.58407,8.12113 22.58158,17.2408 33.69263,20.48778 l 5.40583,1.57975 -0.0599,7.92676 c -0.0858,11.36549 -1.62175,17.92675 -4.19656,17.92675 -1.17457,0 -4.59739,-2.01642 -7.60625,-4.48091 -14.63472,-11.987 -44.94039,-28.96881 -65.25431,-36.56531 -12.3652,-4.62402 -31.72897,-5.0744 -44.21634,-1.02838 -17.07475,5.53234 -52.84335,25.3976 -70.08299,38.92284 -4.07896,3.20013 -7.84381,5.81842 -8.36633,5.81842 -0.52251,0 -1.47964,-1.39302 -2.12696,-3.09561 z"
       id="path3738"
       inkscape:connector-curvature="0" />
    <path
       style="fill:#c79a63;stroke-width:1.33333325"
       d="m 210.65803,922.82757 c -21.85957,-7.12938 -33.35488,-33.39756 -33.31377,-76.12596 0.0423,-43.85589 12.37281,-73.52926 33.05287,-79.54111 26.77848,-7.78472 44.66408,18.2467 45.92386,66.83947 l 0.34567,13.33334 -29.33333,0.66666 -29.33334,0.66667 -0.40521,10 c -1.04552,25.80157 7.66983,44 21.07188,44 9.04831,0 16.85619,-9.31448 19.4042,-23.1484 l 0.94825,-5.1484 6.50668,0.86315 c 10.02568,1.32996 10.74544,1.81921 9.71324,6.6027 -5.64322,26.15231 -16.88637,39.88755 -33.9057,41.42107 -4.03334,0.36343 -8.83722,0.17029 -10.6753,-0.42919 z m 26.40812,-102.59212 c 0.4193,-8.84897 -2.29962,-20.80862 -6.02229,-26.49013 -2.57243,-3.92602 -8.38183,-7.07868 -13.04387,-7.07868 -9.97525,0 -16.62894,9.61975 -19.52116,28.22322 -2.35948,15.17675 -3.16613,14.58117 19.1601,14.14689 l 19.02773,-0.37011 z m 69.51889,102.01788 c -13.9948,-3.94257 -21.78853,-14.53702 -25.92897,-35.24664 -0.94684,-4.73592 0.55844,-5.86305 10.26084,-7.68324 4.51027,-0.84613 4.54721,-0.81185 6.7884,6.29802 4.43089,14.05641 17.49035,20.95693 28.47059,15.04368 9.19458,-4.9516 12.59382,-20.34195 6.77297,-30.66518 -3.01508,-5.34721 -4.32893,-6.27168 -26.23711,-18.46118 -17.3932,-9.67743 -23.46385,-21.6157 -22.47608,-44.20044 0.4605,-10.52863 1.15427,-13.53035 4.87328,-21.08472 2.52184,-5.12259 6.57727,-10.72653 9.69172,-13.39239 11.63534,-9.95941 28.62115,-9.36694 38.79059,1.35303 4.39728,4.63533 10.4536,17.55959 11.34437,24.20904 0.64544,4.81811 0.53912,4.95392 -5.681,7.25684 -3.4863,1.29077 -6.45577,2.19077 -6.59882,2 -0.14304,-0.19076 -1.80872,-3.78108 -3.7015,-7.97849 -3.87918,-8.60248 -9.55145,-13.02198 -16.72356,-13.03003 -13.19522,-0.0148 -19.88802,24.13263 -9.55314,34.46752 2.12021,2.12021 9.43004,6.73436 16.24405,10.25365 15.22308,7.86241 25.40713,17.09039 28.38216,25.71764 8.24195,23.90075 -0.60396,54.16971 -18.33496,62.73861 -7.33188,3.54331 -18.67239,4.57674 -26.38383,2.40428 z m 102.05372,0.57502 c -9.74049,-2.4988 -15.37599,-9.88656 -17.85487,-23.40659 -0.87276,-4.76013 -1.45057,-27.13439 -1.45057,-56.17007 0,-37.23869 -0.38444,-48.57759 -1.68357,-49.65577 -0.92596,-0.76848 -4.07596,-1.59194 -7,-1.82993 l -5.31643,-0.43268 v -10.66667 -10.66666 l 6.66667,-0.66667 6.66666,-0.66667 0.82574,-10 c 0.45414,-5.5 0.90414,-14.27149 1,-19.49221 l 0.17426,-9.49221 5,-0.82644 c 11.76751,-1.94506 11,-3.17 11,17.55602 0,12.6632 0.52038,19.10108 1.66667,20.6194 1.18735,1.5727 4.15911,2.31703 10.33333,2.58818 l 8.66667,0.3806 v 10.66666 10.66667 l -8.98552,0.39392 c -7.59932,0.33316 -9.22173,0.83532 -10.51675,3.25508 -1.10365,2.06219 -1.35085,15.35728 -0.88524,47.61096 0.54979,38.08494 0.97314,45.38241 2.84247,48.99732 3.14147,6.0749 7.16904,8.40938 14.50839,8.40938 h 6.36998 v 10.58798 c 0,5.82338 -0.47085,10.87898 -1.04634,11.23466 -2.09471,1.29459 -17.05938,2.01191 -20.98155,1.00574 z m 65.31924,-0.1764 c -4.99752,-1.53795 -12.03827,-8.27543 -15.27209,-14.61423 -3.84514,-7.53708 -5.80232,-20.30436 -4.97096,-32.42692 2.15428,-31.41269 14.79513,-44.13419 46.9517,-47.25124 l 10.66667,-1.03395 -0.20999,-11.81414 c -0.34208,-19.24629 -5.77147,-28.85073 -16.30316,-28.83984 -2.65111,0.003 -6.80506,1.21513 -9.23104,2.69421 -4.37069,2.66474 -9.50148,11.49586 -9.55986,16.45443 -0.0264,2.24316 -0.7687,2.39459 -7.57164,1.54461 -10.90062,-1.36194 -11.40992,-1.68302 -10.36442,-6.53396 3.36362,-15.60638 10.24051,-25.50104 21.60066,-31.07953 6.25984,-3.07395 9.32496,-3.73539 16.97278,-3.66265 19.47968,0.18525 29.78012,10.96568 32.55992,34.07717 0.73876,6.14207 1.4564,35.4674 1.59475,65.1674 l 0.25156,54 -8.01911,0.39218 -8.01911,0.39218 -0.836,-5.05884 c -0.4598,-2.78238 -0.8426,-7.57344 -0.85066,-10.64683 -0.0188,-7.15999 -2.07439,-8.4 -5.02712,-3.03257 -5.49531,9.98926 -10.12519,16.02745 -14.23862,18.56969 -5.19262,3.20921 -14.44209,4.45148 -20.12426,2.70283 z m 21.89721,-22.11188 c 8.33909,-4.92603 14.32432,-19.93448 15.70465,-39.38076 1.0043,-14.14864 0.0961,-15.826 -8.56845,-15.826 -18.86469,0 -29.66966,11.86912 -29.65065,32.57085 0.0107,11.07635 1.99244,17.29771 6.80053,21.34344 4.68722,3.94404 10.42611,4.41605 15.71392,1.29247 z m 92.06691,22.1956 c -6.40639,-1.94396 -9.17182,-4.1181 -12.4146,-9.76022 -5.70138,-9.91981 -6.1742,-16.18172 -6.1742,-81.76869 v -61.99529 l 9,0.39425 9,0.39426 0.66666,60.66666 c 0.49727,45.25159 1.09278,61.41157 2.34366,63.59829 5.85641,10.2379 19.17973,8.97023 25.05098,-2.38352 4.14097,-8.00774 5.01463,-18.52489 5.80504,-69.88144 l 0.80032,-51.99999 h 8.66667 8.66666 v 74.66666 74.66667 h -8 -8 l -0.39425,-9 c -0.45095,-10.29427 -2.93621,-12.11231 -6.12496,-4.48059 -2.9132,6.97228 -11.1098,15.25177 -16.61206,16.78005 -5.54976,1.5415 -7.48552,1.55771 -12.27992,0.10294 z m 179.3692,-0.0837 c -4.99752,-1.53794 -12.03826,-8.27542 -15.27209,-14.61422 -3.84513,-7.53708 -5.80232,-20.30436 -4.97096,-32.42692 2.15428,-31.4127 14.79513,-44.13419 46.95171,-47.25124 l 10.66666,-1.03395 -0.20998,-11.81414 c -0.34208,-19.2463 -5.77147,-28.85074 -16.30316,-28.83984 -2.65111,0.003 -6.80507,1.21513 -9.23104,2.69421 -4.3707,2.66473 -9.50148,11.49585 -9.55987,16.45443 -0.0264,2.24316 -0.76869,2.39458 -7.57164,1.54461 -10.90061,-1.36195 -11.40992,-1.68303 -10.36441,-6.53396 3.36361,-15.60639 10.2405,-25.50104 21.60065,-31.07953 6.25984,-3.07395 9.32496,-3.73539 16.97279,-3.66266 19.47968,0.18526 29.78012,10.96568 32.55991,34.07718 0.73876,6.14206 1.4564,35.46739 1.59475,65.16739 l 0.25156,54 -8.0191,0.39219 -8.01911,0.39217 -0.836,-5.05884 c -0.4598,-2.78237 -0.8426,-7.57344 -0.85067,-10.64682 -0.0188,-7.15999 -2.07438,-8.4 -5.02712,-3.03258 -5.4953,9.98927 -10.12518,16.02746 -14.23861,18.5697 -5.19263,3.20921 -14.44209,4.45148 -20.12427,2.70282 z m 21.89722,-22.11188 c 8.33909,-4.92602 14.32432,-19.93448 15.70465,-39.38076 1.00429,-14.14864 0.0961,-15.826 -8.56845,-15.826 -18.8647,0 -29.66967,11.86912 -29.65066,32.57086 0.0107,11.07634 1.99244,17.2977 6.80054,21.34344 4.68721,3.94404 10.4261,4.41605 15.71392,1.29246 z m 203.4502,22.28828 c -9.74049,-2.4988 -15.37598,-9.88656 -17.85486,-23.40658 -0.87276,-4.76012 -1.45058,-27.13438 -1.45058,-56.17006 0,-37.23869 -0.38444,-48.57759 -1.68357,-49.65577 -0.92596,-0.76848 -4.07596,-1.59194 -7,-1.82993 l -5.31643,-0.43268 v -10.66667 -10.66666 l 6.66667,-0.66667 6.66667,-0.66667 0.82573,-10 c 0.45415,-5.5 0.90415,-14.27149 1,-19.49221 l 0.17427,-9.49221 5,-0.82644 c 11.7675,-1.94506 11,-3.17 11,17.55602 0,12.6632 0.52037,19.10108 1.66666,20.6194 1.18735,1.5727 4.15911,2.31703 10.3333,2.58818 l 8.6667,0.3806 v 10.66666 10.66667 l -8.9855,0.39392 c -7.59934,0.33316 -9.22175,0.83532 -10.51676,3.25508 -1.10366,2.06219 -1.35086,15.35728 -0.88524,47.61096 0.54978,38.08494 0.97313,45.38241 2.84246,48.99732 3.14147,6.0749 7.16904,8.40938 14.50834,8.40938 h 6.37 v 10.58798 c 0,5.82338 -0.4708,10.87898 -1.0463,11.23466 -2.0947,1.29459 -17.05938,2.01191 -20.98156,1.00574 z M 62.666665,817.86308 V 715.72619 l 26.999999,0.52727 c 24.725546,0.48285 27.588736,0.78861 33.988856,3.62962 C 140.62076,727.41396 148,743.75272 148,773.78547 c 0,21.92301 -4.93483,37.70723 -14.65708,46.88117 -2.33149,2.2 -4.74563,4.93244 -5.36476,6.07209 -0.74219,1.36616 3.33339,17.26464 11.96304,46.66667 7.1988,24.52701 12.82158,45.04457 12.49508,45.59457 -0.32652,0.55 -5.07111,1 -10.54356,1 -9.04076,0 -10.06978,-0.27412 -11.26197,-3 -0.72164,-1.65 -5.83506,-20.3702 -11.36316,-41.60044 -5.5281,-21.23024 -10.69827,-39.38024 -11.48927,-40.33333 -2.25459,-2.71661 -23.240175,-2.3918 -24.302337,0.37616 -0.445126,1.15997 -0.809319,20.65997 -0.809319,43.33333 v 41.22428 h -10 -9.999999 z M 112.43841,807.5146 c 10.78044,-4.50434 16.21297,-17.78125 15.29234,-37.37393 -0.65685,-13.97901 -3.63858,-21.32477 -10.70057,-26.36175 -3.7616,-2.68296 -6.27307,-3.1757 -18.206682,-3.57205 -10.537539,-0.34999 -14.114533,-0.0316 -14.979583,1.33333 -1.282518,2.02363 -1.620826,62.41907 -0.367932,65.68406 0.654342,1.70518 3.088077,2.10905 12.70949,2.10905 7.034397,0 13.679947,-0.74364 16.252937,-1.81871 z m 566.84002,110.81871 c -0.35081,-0.91667 -0.48198,-34.66667 -0.29148,-75 l 0.34636,-73.33333 7.6209,-0.39851 7.62089,-0.39851 0.37911,14.39851 c 0.2974,11.29508 0.78276,14.39851 2.25186,14.39851 1.05883,0 2.86775,-2.92719 4.16208,-6.73503 4.58379,-13.48528 9.32984,-20.46751 16.41884,-24.1548 6.72773,-3.49939 7.54632,-2.03337 7.54632,13.51465 v 14.04184 h -4.46949 c -10.53636,0 -19.63507,12.3234 -22.14987,30 -0.73029,5.13333 -1.3397,28.68333 -1.35422,52.33333 l -0.0264,43 h -8.7085 c -5.73775,0 -8.92611,-0.56856 -9.34638,-1.66666 z m 182.66666,0 c -0.35081,-0.91667 -0.48198,-34.66667 -0.29148,-75 l 0.34636,-73.33333 h 8 8 l 0.66667,9.02028 c 0.72477,9.80645 2.31783,11.50877 5.14535,5.49824 4.4,-9.35324 8.53445,-14.15507 14.43514,-16.76522 11.84924,-5.24149 24.14607,0.26822 30.30856,13.58003 2.67877,5.78649 2.79155,8.36259 3.16936,72.39558 l 0.39175,66.39559 -9.05841,-0.39559 -9.05842,-0.39558 -0.66666,-60.66667 c -0.49727,-45.25158 -1.09278,-61.41157 -2.34366,-63.59829 -7.0058,-12.24721 -22.72626,-7.70285 -27.87226,8.05712 -1.9147,5.86389 -2.32562,14.96001 -2.7952,61.8745 l -0.55052,55 h -8.59436 c -5.64642,0 -8.81315,-0.57168 -9.23222,-1.66666 z M 260.57031,711.56303 c -1.07546,-2.80264 7.19359,-13.27317 18.32997,-23.20997 4.60132,-4.10568 9.28111,-8.50349 10.39954,-9.77291 2.1336,-2.42165 16.57981,-12.16114 34.09458,-22.98624 12.96643,-8.01396 12.43174,-8.78921 -9.39441,-13.62086 -8.8,-1.94807 -24.1,-6.2212 -34,-9.49587 -27.6267,-9.13821 -60,-26.27983 -60,-31.76992 0,-3.5861 23.67756,-9.55548 53.33345,-13.44594 21.71858,-2.84919 64.58723,-2.08699 81.06394,1.44132 15.25206,3.26605 15.82474,2.33338 7.20148,-11.72827 -7.64675,-12.46927 -21.63507,-39.33508 -23.97362,-46.04343 -2.31648,-6.64505 0.93167,-6.89522 12.87851,-0.99189 16.26921,8.03916 27.73651,16.39237 43.80177,31.90687 16.19863,15.64329 16.31653,15.65073 12.99023,0.82073 -1.06914,-4.76667 -2.33806,-16.56047 -2.81982,-26.20845 l -0.8759,-17.54179 -9.83262,-4.99077 c -20.82266,-10.56904 -37.03683,-28.68064 -44.0985,-49.25899 -3.53604,-10.30436 -3.66051,-11.6177 -3.66464,-38.66666 -0.005,-30.61619 -0.1524,-29.72159 10.83969,-65.6474 5.94598,-19.4334 10.86634,-30.23568 19.38518,-42.55861 25.91057,-37.48098 66.31043,-42.78736 94.91351,-12.46658 21.48603,22.77632 32.4512,63.56239 31.18773,116.00592 -0.52929,21.96987 -0.98969,25.97863 -4.21112,36.66667 -8.80499,29.21322 -26.44235,47.95514 -55.39997,58.86943 l -11.38597,4.29144 0.0244,15.7529 c 0.0247,15.87386 2.89296,32.18432 6.536,37.16646 1.48261,2.0276 2.44888,1.51366 9.54457,-5.07665 11.61591,-10.78856 14.73734,-13.23448 27.2283,-21.33588 19.83903,-12.86719 49.79046,-26.33437 58.56849,-26.33437 4.10314,0 3.50106,2.79896 -3.83323,17.82 -8.07857,16.54538 -16.49391,27.8749 -34.44677,46.37549 -12.72848,13.11683 -14.9092,14.76108 -28.69849,21.63858 -15.09416,7.52834 -26.7035,11.4968 -28.4687,9.73162 -0.53045,-0.53047 4.26878,-5.81587 10.66496,-11.74535 11.92596,-11.05576 26.2138,-26.98734 26.2138,-29.22956 0,-0.6916 -1.11196,-1.25745 -2.47102,-1.25745 -2.15666,0 -11.4421,6.22715 -38.35488,25.72213 -10.74158,7.78096 -11.80652,7.41755 -32.39686,-11.05546 -15.9252,-14.2876 -21.45465,-18.15635 -21.43891,-15 0.009,1.88156 4.95947,9.00368 16.4491,23.66666 6.32088,8.06667 11.50453,15.71667 11.51921,17 0.0349,3.04955 -6.90873,3.11487 -20.21946,0.19021 -10.54287,-2.31649 -63.87755,-3.49032 -65.93033,-1.45105 -3.12678,3.10617 12.47302,7.41547 61.50982,16.99147 11.73333,2.2913 21.84269,4.65362 22.46524,5.2496 0.62255,0.59597 -8.37745,5.94212 -20,11.88034 -24.9033,12.72367 -42.08693,22.8108 -42.8255,25.13943 -1.41339,4.45623 15.86064,0.19265 45.02693,-11.11353 10.63333,-4.12198 21.06452,-7.8127 23.18041,-8.20163 l 3.84709,-0.70713 -2.51376,4.3102 c -3.91544,6.71361 -17.95048,19.15154 -29.9287,26.52301 -13.29987,8.1848 -44.67239,20.93808 -56.15411,22.82728 -4.63701,0.76296 -13.23093,2.26649 -19.0976,3.34116 -5.86666,1.07468 -18.6001,2.36118 -28.29653,2.8589 -15.61298,0.80143 -17.72558,0.65554 -18.46648,-1.27521 z m 521.57035,-2.34537 c -29.62743,-4.69696 -58.16771,-14.05167 -76.9952,-25.23687 -13.93085,-8.27617 -34.39687,-28.50721 -31.63363,-31.27044 0.34484,-0.34484 8.09574,2.31434 17.22423,5.90926 16.31973,6.42694 44.05466,15.33316 50.59725,16.24774 6.418,0.89716 3.45357,-3.4235 -6.52859,-9.51546 -5.42406,-3.31022 -19.74864,-11.12392 -31.83238,-17.3638 -12.08375,-6.23987 -22.04588,-11.93987 -22.13808,-12.66667 -0.0921,-0.72679 6.73239,-2.68421 15.16572,-4.34981 36.43412,-7.19586 54.45274,-11.43867 61,-14.36359 7.57912,-3.38589 8.77897,-5.44408 3.88914,-6.67135 -3.53928,-0.88829 -32.17478,1.10195 -61.17746,4.252 -10.79192,1.17214 -20.56608,1.76875 -21.72037,1.3258 -3.112,-1.19418 -3.22135,-1.02889 25.00869,-37.80141 3.87676,-5.04988 4.53312,-7.04641 2.31651,-7.04641 -0.74259,0 -10.10999,7.575 -20.81644,16.83333 -12.91862,11.1713 -20.51143,16.83333 -22.57351,16.83333 -1.78779,0 -9.22611,-4.50919 -17.51689,-10.61895 -21.53338,-15.86864 -33.24782,-23.34008 -35.80156,-22.83412 -3.45367,0.68426 5.18556,10.88436 24.50856,28.93658 8.91917,8.33259 16.21666,16.00977 16.21666,17.06041 0,2.33835 -6.4868,1.39504 -16.94301,-2.46386 -24.17944,-8.92351 -56.61161,-41.18925 -76.80752,-76.41339 -3.36366,-5.86666 -6.51089,-12.31666 -6.99382,-14.33333 -0.79367,-3.31423 -0.53063,-3.66667 2.73648,-3.66667 4.91272,0 25.39382,6.97858 35.59657,12.12891 18.54269,9.36032 39.01014,23.46716 52.73548,36.34704 l 6.99084,6.56021 1.96698,-4.70765 c 2.74703,-6.57455 7.38467,-33.24431 7.38467,-42.46708 v -7.6722 l -7.66667,-2.21908 c -13.62973,-3.94507 -25.97941,-10.47719 -32.89092,-17.39703 -8.04377,-8.05346 -14.12139,-20.53926 -15.04509,-30.90846 -0.92724,-10.409 6.71236,-179.1454 8.22143,-181.58712 0.47958,-0.77597 4.07236,-1.41086 7.98396,-1.41086 5.35129,0 7.31898,0.53942 7.9481,2.17889 0.45987,1.19839 0.79775,37.38075 0.75086,80.40524 -0.0469,43.02449 0.30721,79.24917 0.78693,80.49928 1.32892,3.46314 6.88243,4.32444 9.95488,1.5439 2.51937,-2.28 2.61368,-4.94174 2.94627,-83.15802 l 0.34358,-80.80263 7,-0.40301 7,-0.40301 v 79.31621 c 0,46.99226 0.51738,80.67698 1.26951,82.65528 1.97523,5.19522 5.84509,6.64549 9.60668,3.60018 l 3.12381,-2.52898 0.66667,-81.11833 0.66667,-81.11834 h 6.66666 6.66667 l 0.66667,80.79587 c 0.71388,86.5184 0.60077,85.20413 7.33333,85.20413 6.73256,0 6.61945,1.31427 7.33333,-85.20413 l 0.66667,-80.79587 7.62488,-0.39862 c 7.03156,-0.3676 7.6744,-0.16011 8.2614,2.66666 0.35008,1.68591 1.29466,21.6653 2.09906,44.39863 1.75499,49.5978 1.9329,53.57686 3.99436,89.33333 2.31007,40.06883 1.65964,52.61519 -3.24962,62.68339 -4.71947,9.67893 -15.91184,21.18918 -26.73008,27.48926 l -8,4.65887 -0.83732,17.91757 c -0.46052,9.85467 -1.81052,22.0048 -3,27.00031 -1.18947,4.9955 -2.16268,9.77412 -2.16268,10.61912 0,0.84501 5.55,-3.99572 12.33333,-10.75719 14.98294,-14.93465 30.07803,-26.34411 44.38493,-33.54785 11.97387,-6.02903 16.61507,-6.8193 16.61507,-2.82907 0,3.60831 -14.24812,31.61043 -23.90577,46.98249 -4.45183,7.08596 -8.09423,13.53596 -8.09423,14.33334 0,1.8989 1.75913,1.83362 14.07235,-0.52228 35.35293,-6.76414 77.86962,-5.47607 112.30343,3.40228 15.5648,4.0132 22.95755,7.00718 22.95755,9.29756 0,2.09111 -17.72101,13.01231 -31.75697,19.57135 -12.17888,5.69123 -61.59248,22.7834 -72.90969,25.21948 -3.29779,0.70987 -5.33334,1.89992 -5.33334,3.11806 0,1.0835 7.14346,6.7835 15.87435,12.66666 8.73089,5.88315 21.57796,15.49664 28.54904,21.36331 12.6622,10.65616 26.29072,26.43252 24.84904,28.76521 -1.2619,2.0418 -26.86365,1.13721 -43.79841,-1.54753 z M 443.12204,550.99998 c -0.51081,-2.01666 -0.97225,-7.53277 -1.0254,-12.258 -0.1084,-9.63206 -1.63259,-8.01805 15.23668,-16.13426 12.03923,-5.79238 27.02792,-17.547 34.10899,-26.74938 8.75337,-11.37566 16.23239,-27.98442 19.50185,-43.30799 5.764,-27.01532 2.93976,-74.3466 -6.43371,-107.82195 -8.29767,-29.63333 -25.77261,-53.49781 -46.37376,-63.32984 -11.51149,-5.49393 -20.61432,-7.20277 -33.93985,-6.37141 -9.95085,0.6208 -12.667,1.40807 -23.62364,6.84723 -32.23081,16.00021 -52.90354,52.83257 -64.05474,114.12561 -3.48482,19.1544 -3.19707,50.75345 0.58776,64.5471 7.04702,25.68252 20.00444,43.1642 43.29013,58.40547 5.282,3.45725 10.35364,6.9309 11.2703,7.71924 1.98094,1.70358 2.28544,15.99485 0.3408,15.99485 -0.72921,0 -5.98126,-3.45 -11.67121,-7.66667 -12.77198,-9.46497 -27.38841,-17.23754 -39.66958,-21.0951 -8.90099,-2.79583 -9.47951,-3.23211 -12.48886,-9.41827 -1.73553,-3.56764 -5.1435,-12.5427 -7.57325,-19.94457 -17.42877,-53.09412 -18.38757,-112.22784 -2.61387,-161.20872 7.95815,-24.71184 27.25908,-58.12291 44.73772,-77.44371 36.16091,-39.97208 81.85328,-66.38367 133.84558,-77.36684 22.28966,-4.7086 57.69154,-5.85943 78.75934,-2.56028 52.17138,8.16988 97.84178,31.20624 134.77497,67.9811 34.89351,34.74392 56.76378,77.77193 66.10506,130.0564 2.78101,15.56576 2.38845,61.39106 -0.66819,78 -4.68841,25.47556 -11.22936,48.04454 -17.59746,60.71863 -2.70923,5.392 -3.8538,6.30824 -10.49582,8.40195 -11.6579,3.67484 -30.34033,13.55977 -42.08227,22.26591 -5.89486,4.37076 -10.96687,7.94684 -11.27116,7.94684 -1.29567,0 -2.19059,-8.1531 -1.37318,-12.51024 0.70338,-3.74934 2.0814,-5.43315 6.62616,-8.09655 8.57598,-5.02587 20.86599,-17.99665 25.76995,-27.19743 8.01061,-15.02945 8.45962,-20.23983 6.22152,-72.19578 -1.08984,-25.3 -2.60726,-56.67498 -3.37202,-69.7222 -0.76477,-13.0472 -1.75301,-34.0472 -2.19608,-46.66666 -0.44308,-12.61946 -1.30882,-24.29447 -1.92388,-25.94447 l -1.11828,-3 h -61.9543 c -46.31149,0 -62.20086,0.39892 -62.93077,1.57995 -0.53705,0.86896 -1.44455,13.31896 -2.01665,27.66666 -0.57212,14.3477 -1.65535,38.68672 -2.40719,54.08672 -0.75184,15.4 -2.04904,42.04455 -2.88267,59.21009 -0.83362,17.16556 -1.26701,38.46556 -0.96308,47.33334 0.53662,15.65692 0.70107,16.40466 5.68612,25.85397 6.50899,12.33796 18.15489,23.26542 31.98651,30.01329 5.54969,2.70745 10.94577,4.92264 11.99129,4.92264 4.58056,0 5.68715,3.34903 4.47103,13.53137 -1.74616,14.62036 -2.00788,14.66556 -17.27402,2.98298 -14.50593,-11.10083 -41.16061,-25.28032 -60.26738,-32.06046 -16.57945,-5.8833 -32.80069,-5.26678 -50.17155,1.90684 -19.11709,7.89479 -50.44114,26.07799 -64.51666,37.4511 -6.33725,5.12053 -7.183,5.17329 -8.36128,0.5215 z"
       id="path3736"
       inkscape:connector-curvature="0" />
    <path
       style="fill:#ea881b;stroke-width:1.33333325"
       d="m 260.97221,711.16102 c -2.19031,-3.54399 27.24195,-31.93068 44.52607,-42.94431 31.69203,-20.1945 32.00304,-20.46382 26.27311,-22.75118 -1.7076,-0.68167 -10.30473,-2.86667 -19.10473,-4.85556 -22.34628,-5.0505 -45.33489,-12.83052 -63.29679,-21.42148 -16.59562,-7.9375 -30.40584,-17.35255 -28.3981,-19.36028 2.24002,-2.24003 31.44133,-8.87835 49.02822,-11.14556 24.82577,-3.2004 60.6448,-2.91408 81.06668,0.648 15.21673,2.65417 18.26665,2.63401 18.26665,-0.1208 0,-0.71467 -3.52061,-7.12925 -7.8236,-14.25464 -7.9128,-13.10299 -21.70582,-39.77253 -23.42248,-45.2886 -1.34276,-4.31469 2.05746,-3.93284 13.2837,1.49179 13.79866,6.66765 30.2393,19.03988 45.7937,34.46157 l 13.83131,13.71331 -0.76867,-5.33334 c -0.42276,-2.93333 -1.69457,-10.73333 -2.82624,-17.33333 -1.13167,-6.6 -2.05985,-17.84136 -2.06264,-24.9808 l -0.005,-12.98081 -8.33334,-4.1764 c -39.16369,-19.6276 -54.47401,-49.90324 -50.52197,-99.90548 2.3395,-29.59976 12.9926,-66.62301 25.25719,-87.77752 15.18776,-26.19604 35.1899,-40.17894 57.47516,-40.17894 33.29037,0 58.409,29.31246 68.08505,79.4526 8.58548,44.48894 5.77792,84.75775 -7.70588,110.52562 -9.07609,17.34462 -28.22823,33.0251 -48.92263,40.05454 -4.4,1.49459 -8.83425,3.23612 -9.85389,3.87007 -4.38852,2.72849 1.56568,49.71371 6.98697,55.135 1.4444,1.4444 3.01158,0.53815 8.97511,-5.19012 14.3858,-13.81823 39.61557,-30.56532 58.88649,-39.08784 14.6298,-6.47 30.33865,-10.62471 30.33865,-8.02404 0,0.40472 -1.15826,2.95472 -2.57393,5.66667 -1.41567,2.71196 -4.52927,8.96278 -6.91911,13.89074 -5.97446,12.3196 -15.26729,24.45023 -31.80846,41.52202 -13.42351,13.85409 -14.72547,14.81693 -30.03183,22.20961 -14.42438,6.96669 -24.66666,10.64418 -24.66666,8.85657 0,-0.36507 7.07445,-7.76275 15.721,-16.43928 16.59768,-16.65521 23.87072,-25.29489 22.47156,-26.69406 -2.10154,-2.10152 -12.38786,3.57345 -30.85923,17.02502 -11,8.01064 -21.07937,14.91352 -22.39861,15.33973 -3.23127,1.04395 -6.56395,-1.32544 -23.60139,-16.77953 -15.67921,-14.22209 -20.9258,-18.1853 -22.28057,-16.83053 -1.64391,1.64389 3.82657,10.65931 16.02813,26.41455 6.73884,8.70151 12.25244,16.55483 12.25244,17.45179 0,1.97991 -6.10871,1.63019 -21.99219,-1.25904 -12.42975,-2.261 -63.38363,-3.27748 -66.40589,-1.32473 -5.79577,3.74477 13.45054,9.55145 63.06475,19.02684 9.53333,1.82069 18.77556,3.61735 20.53829,3.99257 2.55641,0.54419 -2.09249,3.48307 -22.9736,14.52318 -14.39821,7.61252 -28.89044,15.70676 -32.20496,17.98721 -6.98874,4.80837 -7.86934,8.01816 -2.19978,8.01816 5.5829,0 27.48557,-6.8366 48.50671,-15.14068 21.16842,-8.36225 22.55826,-7.7574 10.71223,4.66192 -18.06976,18.94424 -53.31881,35.61764 -89.71222,42.43537 -16.5608,3.10241 -52.43436,5.24331 -53.69445,3.20443 z m 525.79611,-1.84437 c -34.10106,-5.27631 -63.57833,-14.89726 -83.2955,-27.18643 -10.76563,-6.70992 -28.80617,-23.60992 -28.80617,-26.985 0,-1.15444 0.74922,-1.78908 1.66666,-1.41177 24.81943,10.20725 61.5328,22.26653 67.78839,22.26653 9.24684,0 -5.25274,-10.23285 -40.61292,-28.66195 -14.39419,-7.50198 -21.83436,-12.06381 -20.66667,-12.67142 1.0035,-0.52218 7.22454,-1.97719 13.82454,-3.23338 47.09661,-8.9639 70.98286,-15.78906 69.62942,-19.89562 -1.08951,-3.30574 -36.94805,-2.03347 -72.21132,2.56205 -17.6936,2.30584 -16.75144,2.30001 -16.75144,0.10365 0,-1.75118 11.42459,-17.49958 24.28051,-33.46986 6.42893,-7.98635 7.83024,-11.40013 4.67956,-11.40013 -0.93863,0 -10.7884,7.8 -21.88837,17.33333 -11.09999,9.53333 -21.19399,17.33333 -22.43111,17.33333 -1.23713,0 -10.43736,-5.92674 -20.44496,-13.17056 -21.13204,-15.29601 -30.68575,-21.4961 -33.12333,-21.4961 -4.78846,0 0.15497,6.53377 19.91254,26.31861 23.5638,23.5963 24.0262,24.86737 6.90339,18.97626 -25.25295,-8.68829 -57.13754,-39.41814 -78.21925,-75.38643 -3.46808,-5.91704 -6.69593,-12.7099 -7.173,-15.09527 l -0.86741,-4.33703 5.18572,0.91614 c 21.51704,3.80128 66.17143,29.09766 84.46333,47.84785 9.34628,9.58044 9.91021,9.05821 14.49544,-13.42375 3.96182,-19.42526 5.01409,-32.8532 2.71756,-34.67845 -1.00318,-0.79731 -6.02395,-2.81219 -11.15728,-4.47751 -16.93912,-5.49526 -25.816,-11.087 -33.42926,-21.05777 -7.53428,-9.86734 -10.12978,-18.85522 -10.08875,-34.93598 0.0672,-26.36467 7.20059,-169.99139 8.52597,-171.66667 1.37861,-1.74258 8.59048,-2.24872 12.21632,-0.85734 1.89057,0.72548 2.10905,9.05105 2.10905,80.36998 0,69.85067 0.25332,79.92233 2.0756,82.52401 2.32835,3.32418 8.70419,4.04019 11.02929,1.2386 0.9585,-1.15492 1.78334,-28.57704 2.4966,-82.99999 l 1.06518,-81.27526 3.13561,-0.44384 c 1.72459,-0.2441 4.57459,-0.0827 6.33333,0.35874 l 3.19772,0.80257 v 80.64127 c 0,78.86349 0.0588,80.70005 2.66667,83.30793 3.3736,3.3736 6.92644,3.39625 9.94264,0.0633 2.20185,-2.43301 2.34268,-7.80493 2.15317,-82.13229 -0.14974,-58.73423 0.20255,-80.01736 1.34731,-81.39671 1.89707,-2.28582 9.43189,-2.45937 11.62355,-0.26772 1.20902,1.20903 1.6,21.22764 1.6,81.9244 v 80.32439 l 2.96334,2.07561 c 3.91642,2.74316 5.82743,2.61816 9.03666,-0.59107 2.60789,-2.60789 2.66666,-4.44444 2.66666,-83.33333 0,-44.36666 0.45,-80.74412 1,-80.83878 4.3709,-0.75235 12.19526,-0.73727 13.43007,0.0259 1.0275,0.63503 2.38314,20.58364 4.21993,62.09747 1.48837,33.63904 3.34888,72.91142 4.13445,87.27198 1.56203,28.55446 1.12766,35.34799 -2.95837,46.2689 -3.53963,9.4605 -14.8732,21.69723 -26.48518,28.59579 l -8.93247,5.30668 -0.86568,16.30271 c -0.47613,8.96648 -2.04616,21.97456 -3.48897,28.90683 -1.4428,6.93228 -2.36816,12.85925 -2.05635,13.17108 0.31181,0.31181 5.83996,-4.80956 12.28476,-11.38082 6.4448,-6.57126 15.48131,-14.7937 20.08115,-18.27209 16.93633,-12.80721 37.97571,-23.64992 40.66751,-20.95812 1.77291,1.77291 -11.50696,28.8902 -23.58934,48.16915 -4.82571,7.7 -8.77419,14.38581 -8.77443,14.85734 -9.6e-4,1.97386 4.10455,2.12911 12.12905,0.45867 27.49664,-5.72392 74.67835,-6.06629 100.5372,-0.72955 19.3884,4.00136 36.66667,9.49143 36.66667,11.65059 0,2.71641 -17.46747,13.50869 -33.33334,20.59501 -15.37217,6.86581 -57.58513,21.25728 -69.77366,23.78761 -6.00045,1.2457 -7.62104,2.09464 -7.29993,3.82407 0.227,1.2226 6.76572,6.42292 14.53048,11.55625 7.76476,5.13334 19.16345,13.30878 25.33044,18.16766 15.92768,12.54921 32.41821,30.40458 30.16317,32.65962 -1.96534,1.96533 -23.03559,1.49961 -38.18215,-0.84394 z M 444.66795,550.66873 c -0.45252,-0.73219 -1.17279,-5.50639 -1.6006,-10.60933 -0.77658,-9.26294 -0.77156,-9.28067 3.0774,-10.86764 32.64325,-13.45918 51.09097,-31.42098 61.85405,-60.22481 10.21982,-27.34998 9.32161,-80.37814 -2.09415,-123.63363 -4.26091,-16.14498 -11.79208,-31.70781 -21.02001,-43.43694 -8.54848,-10.86551 -17.04068,-17.59803 -29.69125,-23.53895 -8.8196,-4.14181 -9.87107,-4.31817 -25.86007,-4.3374 l -16.66667,-0.02 -11.64998,5.69671 c -33.21528,16.24181 -55.52932,55.69921 -65.77211,116.30325 -4.38394,25.93873 -3.88542,48.07466 1.55292,68.95385 5.85351,22.47313 23.00138,43.67806 47.21711,58.38834 7.82554,4.75378 7.9854,4.96906 7.9854,10.75434 0,3.2469 -0.29199,5.90346 -0.64886,5.90346 -0.35688,0 -5.30688,-3.19045 -10.99999,-7.0899 -14.65262,-10.03615 -24.76062,-15.43063 -36.85866,-19.6709 -5.77913,-2.02553 -11.25973,-4.48297 -12.17913,-5.46098 -2.11767,-2.2527 -10.15707,-23.99721 -13.72091,-37.11155 -6.50196,-23.92617 -8.56462,-38.67157 -9.2324,-66 -0.56765,-23.23102 -0.27798,-28.86726 2.24839,-43.74723 6.06485,-35.72108 16.74989,-63.1768 36.16177,-92.91943 10.03408,-15.37408 38.90153,-44.67585 55.95627,-56.79812 59.89637,-42.57354 131.17166,-56.35493 199.66595,-38.60628 22.70259,5.88284 49.39095,18.07026 70.18929,32.05242 57.84867,38.89006 93.29464,95.59926 103.35292,165.35198 1.76917,12.26892 1.76837,48.38622 -10e-4,61.57018 -3.11298,23.19087 -8.83355,45.74474 -16.30884,64.29923 l -4.51342,11.20273 -8.55552,2.88216 c -12.66536,4.26668 -25.30021,10.83245 -38.9101,20.21985 -6.66467,4.59695 -12.61135,8.05292 -13.21484,7.67994 -1.69813,-1.04951 -1.29495,-9.1036 0.56941,-11.37458 0.91667,-1.1166 4.80959,-4.27718 8.65095,-7.02353 21.68668,-15.50473 32.4678,-38.42476 30.34376,-64.50909 -0.34099,-4.18747 -1.24839,-25.31356 -2.01646,-46.94689 -0.76806,-21.63334 -2.04292,-48.63333 -2.83301,-60 -0.79009,-11.36667 -1.82189,-31.88756 -2.29287,-45.60197 -0.5332,-15.52619 -1.42046,-25.49944 -2.35137,-26.43035 -1.98731,-1.98731 -125.81841,-1.84965 -127.8121,0.14208 -0.77217,0.77141 -1.74244,13.51991 -2.25449,29.62224 -0.49442,15.5474 -1.5537,40.268 -2.35395,54.93467 -4.73861,86.84607 -5.25157,108.32562 -2.85691,119.62814 2.20332,10.39944 12.40615,25.82921 21.73844,32.87516 8.06349,6.088 22.40135,13.8837 28.21221,15.33941 l 3.84088,0.9622 -0.66969,9.35968 c -0.36832,5.14783 -1.24131,9.93131 -1.93997,10.62997 -0.80486,0.80486 -3.45835,-0.40037 -7.24184,-3.28929 -11.77254,-8.98899 -30.07187,-20.0944 -43.83025,-26.59948 -37.02159,-17.50409 -51.87799,-18.17985 -83.05146,-3.77767 -12.36853,5.71428 -38.24903,20.29798 -43.86541,24.7182 -7.27996,5.72954 -15.36705,11.487 -16.13492,11.487 -0.43496,0 -1.16108,-0.59906 -1.61358,-1.33125 z"
       id="path3734"
       inkscape:connector-curvature="0" />
    <path
       style="fill:#dc761e;stroke-width:1.33333325"
       d="m 260.97221,711.16102 c -2.19031,-3.54399 27.24195,-31.93068 44.52607,-42.94431 31.69203,-20.1945 32.00304,-20.46382 26.27311,-22.75118 -1.7076,-0.68167 -10.30473,-2.86667 -19.10473,-4.85556 -22.34628,-5.0505 -45.33489,-12.83052 -63.29679,-21.42148 -16.59562,-7.9375 -30.40584,-17.35255 -28.3981,-19.36028 2.24002,-2.24003 31.44133,-8.87835 49.02822,-11.14556 24.82577,-3.2004 60.6448,-2.91408 81.06668,0.648 15.21673,2.65417 18.26665,2.63401 18.26665,-0.1208 0,-0.71467 -3.52061,-7.12925 -7.8236,-14.25464 -7.9128,-13.10299 -21.70582,-39.77253 -23.42248,-45.2886 -1.34276,-4.31469 2.05746,-3.93284 13.2837,1.49179 13.79866,6.66765 30.2393,19.03988 45.7937,34.46157 l 13.83131,13.71331 -0.76867,-5.33334 c -0.42276,-2.93333 -1.69457,-10.73333 -2.82624,-17.33333 -1.13167,-6.6 -2.05985,-17.84136 -2.06264,-24.9808 l -0.005,-12.98081 -8.33334,-4.1764 c -39.16369,-19.6276 -54.47401,-49.90324 -50.52197,-99.90548 2.3395,-29.59976 12.9926,-66.62301 25.25719,-87.77752 15.18776,-26.19604 35.1899,-40.17894 57.47516,-40.17894 33.29037,0 58.409,29.31246 68.08505,79.4526 8.58548,44.48894 5.77792,84.75775 -7.70588,110.52562 -9.07609,17.34462 -28.22823,33.0251 -48.92263,40.05454 -4.4,1.49459 -8.83425,3.23612 -9.85389,3.87007 -4.38852,2.72849 1.56568,49.71371 6.98697,55.135 1.4444,1.4444 3.01158,0.53815 8.97511,-5.19012 14.3858,-13.81823 39.61557,-30.56532 58.88649,-39.08784 14.6298,-6.47 30.33865,-10.62471 30.33865,-8.02404 0,0.40472 -1.15826,2.95472 -2.57393,5.66667 -1.41567,2.71196 -4.52927,8.96278 -6.91911,13.89074 -5.97446,12.3196 -15.26729,24.45023 -31.80846,41.52202 -13.42351,13.85409 -14.72547,14.81693 -30.03183,22.20961 -14.42438,6.96669 -24.66666,10.64418 -24.66666,8.85657 0,-0.36507 7.07445,-7.76275 15.721,-16.43928 16.59768,-16.65521 23.87072,-25.29489 22.47156,-26.69406 -2.10154,-2.10152 -12.38786,3.57345 -30.85923,17.02502 -11,8.01064 -21.07937,14.91352 -22.39861,15.33973 -3.23127,1.04395 -6.56395,-1.32544 -23.60139,-16.77953 -15.67921,-14.22209 -20.9258,-18.1853 -22.28057,-16.83053 -1.64391,1.64389 3.82657,10.65931 16.02813,26.41455 6.73884,8.70151 12.25244,16.55483 12.25244,17.45179 0,1.97991 -6.10871,1.63019 -21.99219,-1.25904 -12.42975,-2.261 -63.38363,-3.27748 -66.40589,-1.32473 -5.79577,3.74477 13.45054,9.55145 63.06475,19.02684 9.53333,1.82069 18.77556,3.61735 20.53829,3.99257 2.55641,0.54419 -2.09249,3.48307 -22.9736,14.52318 -14.39821,7.61252 -28.89044,15.70676 -32.20496,17.98721 -6.98874,4.80837 -7.86934,8.01816 -2.19978,8.01816 5.5829,0 27.48557,-6.8366 48.50671,-15.14068 21.16842,-8.36225 22.55826,-7.7574 10.71223,4.66192 -18.06976,18.94424 -53.31881,35.61764 -89.71222,42.43537 -16.5608,3.10241 -52.43436,5.24331 -53.69445,3.20443 z m 525.79611,-1.84437 c -34.10106,-5.27631 -63.57833,-14.89726 -83.2955,-27.18643 -10.76563,-6.70992 -28.80617,-23.60992 -28.80617,-26.985 0,-1.15444 0.74922,-1.78908 1.66666,-1.41177 24.81943,10.20725 61.5328,22.26653 67.78839,22.26653 9.24684,0 -5.25274,-10.23285 -40.61292,-28.66195 -14.39419,-7.50198 -21.83436,-12.06381 -20.66667,-12.67142 1.0035,-0.52218 7.22454,-1.97719 13.82454,-3.23338 47.09661,-8.9639 70.98286,-15.78906 69.62942,-19.89562 -1.08951,-3.30574 -36.94805,-2.03347 -72.21132,2.56205 -17.6936,2.30584 -16.75144,2.30001 -16.75144,0.10365 0,-1.75118 11.42459,-17.49958 24.28051,-33.46986 6.42893,-7.98635 7.83024,-11.40013 4.67956,-11.40013 -0.93863,0 -10.7884,7.8 -21.88837,17.33333 -11.09999,9.53333 -21.19399,17.33333 -22.43111,17.33333 -1.23713,0 -10.43736,-5.92674 -20.44496,-13.17056 -21.13204,-15.29601 -30.68575,-21.4961 -33.12333,-21.4961 -4.78846,0 0.15497,6.53377 19.91254,26.31861 23.5638,23.5963 24.0262,24.86737 6.90339,18.97626 -25.25295,-8.68829 -57.13754,-39.41814 -78.21925,-75.38643 -3.46808,-5.91704 -6.69593,-12.7099 -7.173,-15.09527 l -0.86741,-4.33703 5.18572,0.91614 c 21.51704,3.80128 66.17143,29.09766 84.46333,47.84785 9.34628,9.58044 9.91021,9.05821 14.49544,-13.42375 3.96182,-19.42526 5.01409,-32.8532 2.71756,-34.67845 -1.00318,-0.79731 -6.02395,-2.81219 -11.15728,-4.47751 -16.93912,-5.49526 -25.816,-11.087 -33.42926,-21.05777 -7.53428,-9.86734 -10.12978,-18.85522 -10.08875,-34.93598 0.0672,-26.36467 7.20059,-169.99139 8.52597,-171.66667 1.37861,-1.74258 8.59048,-2.24872 12.21632,-0.85734 1.89057,0.72548 2.10905,9.05105 2.10905,80.36998 0,69.85067 0.25332,79.92233 2.0756,82.52401 2.32835,3.32418 8.70419,4.04019 11.02929,1.2386 0.9585,-1.15492 1.78334,-28.57704 2.4966,-82.99999 l 1.06518,-81.27526 3.13561,-0.44384 c 1.72459,-0.2441 4.57459,-0.0827 6.33333,0.35874 l 3.19772,0.80257 v 80.64127 c 0,78.86349 0.0588,80.70005 2.66667,83.30793 3.3736,3.3736 6.92644,3.39625 9.94264,0.0633 2.20185,-2.43301 2.34268,-7.80493 2.15317,-82.13229 -0.14974,-58.73423 0.20255,-80.01736 1.34731,-81.39671 1.89707,-2.28582 9.43189,-2.45937 11.62355,-0.26772 1.20902,1.20903 1.6,21.22764 1.6,81.9244 v 80.32439 l 2.96334,2.07561 c 3.91642,2.74316 5.82743,2.61816 9.03666,-0.59107 2.60789,-2.60789 2.66666,-4.44444 2.66666,-83.33333 0,-44.36666 0.45,-80.74412 1,-80.83878 4.3709,-0.75235 12.19526,-0.73727 13.43007,0.0259 1.0275,0.63503 2.38314,20.58364 4.21993,62.09747 1.48837,33.63904 3.34888,72.91142 4.13445,87.27198 1.56203,28.55446 1.12766,35.34799 -2.95837,46.2689 -3.53963,9.4605 -14.8732,21.69723 -26.48518,28.59579 l -8.93247,5.30668 -0.86568,16.30271 c -0.47613,8.96648 -2.04616,21.97456 -3.48897,28.90683 -1.4428,6.93228 -2.36816,12.85925 -2.05635,13.17108 0.31181,0.31181 5.83996,-4.80956 12.28476,-11.38082 6.4448,-6.57126 15.48131,-14.7937 20.08115,-18.27209 16.93633,-12.80721 37.97571,-23.64992 40.66751,-20.95812 1.77291,1.77291 -11.50696,28.8902 -23.58934,48.16915 -4.82571,7.7 -8.77419,14.38581 -8.77443,14.85734 -9.6e-4,1.97386 4.10455,2.12911 12.12905,0.45867 27.49664,-5.72392 74.67835,-6.06629 100.5372,-0.72955 19.3884,4.00136 36.66667,9.49143 36.66667,11.65059 0,2.71641 -17.46747,13.50869 -33.33334,20.59501 -15.37217,6.86581 -57.58513,21.25728 -69.77366,23.78761 -6.00045,1.2457 -7.62104,2.09464 -7.29993,3.82407 0.227,1.2226 6.76572,6.42292 14.53048,11.55625 7.76476,5.13334 19.16345,13.30878 25.33044,18.16766 15.92768,12.54921 32.41821,30.40458 30.16317,32.65962 -1.96534,1.96533 -23.03559,1.49961 -38.18215,-0.84394 z M 444.66795,550.66873 c -0.45252,-0.73219 -1.17378,-5.51808 -1.60279,-10.63531 -0.69764,-8.32148 -0.51345,-9.3983 1.74407,-10.19638 23.23857,-8.21534 44.38733,-25.05468 55.51815,-44.20539 10.88244,-18.72336 14.94838,-37.87718 14.92278,-70.29833 -0.0549,-69.59816 -20.4142,-117.45029 -57.73621,-135.70248 l -11.51396,-5.63085 h -16.66667 -16.66667 l -11.59365,5.66943 c -33.3756,16.32106 -55.54797,55.50358 -65.82844,116.33057 -4.38394,25.93873 -3.88542,48.07466 1.55292,68.95385 5.83668,22.40855 23.0092,43.68282 47.04789,58.28556 7.62126,4.62966 7.81918,4.89785 7.93672,10.75433 0.0663,3.30344 -0.14952,6.00625 -0.47962,6.00625 -0.33011,0 -5.25822,-3.19045 -10.95133,-7.0899 -14.75159,-10.10395 -24.79787,-15.44854 -37.01782,-19.69339 -12.73513,-4.4238 -13.35248,-5.23856 -20.90376,-27.58816 -4.44113,-13.14449 -5.15797,-16.74114 -4.51001,-22.62854 0.60329,-5.48167 0.36501,-7 -1.0986,-7 -2.69477,0 -3.39869,-2.6531 -5.65123,-21.29946 -2.36349,-19.56492 -2.61472,-56.53138 -0.49138,-72.30654 7.27214,-54.02819 37.91742,-107.84154 81.27643,-142.72208 29.87239,-24.03109 69.34216,-42.47501 107.44148,-50.20654 16.8592,-3.42127 44.15253,-5.30471 42.69493,-2.94628 -0.54802,0.88673 -0.92178,17.93269 -0.83057,37.8799 0.0912,19.94722 0.29488,95.81769 0.4526,168.60105 0.286,131.97805 0.27955,132.33338 -2.40669,132.33333 -14.16003,-2.9e-4 -58.19491,21.01252 -82.81631,39.51876 -10.19113,7.65997 -10.5683,7.84556 -11.82226,5.8166 z m -84.66796,-39.96024 c 0,-0.71031 -0.9,-0.94612 -2,-0.52401 -1.1,0.42212 -2,1.00328 -2,1.29149 0,0.2882 0.9,0.52401 2,0.52401 1.1,0 2,-0.58117 2,-1.29149 z"
       id="path3732"
       inkscape:connector-curvature="0" />
    <path
       style="fill:#68403a;stroke-width:1.33333325"
       d="m 260.97221,711.16102 c -2.19031,-3.54399 27.24195,-31.93068 44.52607,-42.94431 31.69203,-20.1945 32.00304,-20.46382 26.27311,-22.75118 -1.7076,-0.68167 -10.30473,-2.86667 -19.10473,-4.85556 -22.34628,-5.0505 -45.33489,-12.83052 -63.29679,-21.42148 -16.59562,-7.9375 -30.40584,-17.35255 -28.3981,-19.36028 2.24002,-2.24003 31.44133,-8.87835 49.02822,-11.14556 24.82577,-3.2004 60.6448,-2.91408 81.06668,0.648 15.21673,2.65417 18.26665,2.63401 18.26665,-0.1208 0,-0.71467 -3.52061,-7.12925 -7.8236,-14.25464 -7.9128,-13.10299 -21.70582,-39.77253 -23.42248,-45.2886 -1.34276,-4.31469 2.05746,-3.93284 13.2837,1.49179 13.79866,6.66765 30.2393,19.03988 45.7937,34.46157 l 13.83131,13.71331 -0.76867,-5.33334 c -0.42276,-2.93333 -1.69457,-10.73333 -2.82624,-17.33333 -1.13167,-6.6 -2.05985,-17.84136 -2.06264,-24.9808 l -0.005,-12.98081 -8.33334,-4.1764 c -39.16369,-19.6276 -54.47401,-49.90324 -50.52197,-99.90548 2.3395,-29.59976 12.9926,-66.62301 25.25719,-87.77752 15.18776,-26.19604 35.1899,-40.17894 57.47516,-40.17894 33.29037,0 58.409,29.31246 68.08505,79.4526 8.58548,44.48894 5.77792,84.75775 -7.70588,110.52562 -9.07609,17.34462 -28.22823,33.0251 -48.92263,40.05454 -4.4,1.49459 -8.83425,3.23612 -9.85389,3.87007 -4.38852,2.72849 1.56568,49.71371 6.98697,55.135 1.4444,1.4444 3.01158,0.53815 8.97511,-5.19012 14.3858,-13.81823 39.61557,-30.56532 58.88649,-39.08784 14.6298,-6.47 30.33865,-10.62471 30.33865,-8.02404 0,0.40472 -1.15826,2.95472 -2.57393,5.66667 -1.41567,2.71196 -4.52927,8.96278 -6.91911,13.89074 -5.97446,12.3196 -15.26729,24.45023 -31.80846,41.52202 -13.42351,13.85409 -14.72547,14.81693 -30.03183,22.20961 -14.42438,6.96669 -24.66666,10.64418 -24.66666,8.85657 0,-0.36507 7.07445,-7.76275 15.721,-16.43928 16.59768,-16.65521 23.87072,-25.29489 22.47156,-26.69406 -2.10154,-2.10152 -12.38786,3.57345 -30.85923,17.02502 -11,8.01064 -21.07937,14.91352 -22.39861,15.33973 -3.23127,1.04395 -6.56395,-1.32544 -23.60139,-16.77953 -15.67921,-14.22209 -20.9258,-18.1853 -22.28057,-16.83053 -1.64391,1.64389 3.82657,10.65931 16.02813,26.41455 6.73884,8.70151 12.25244,16.55483 12.25244,17.45179 0,1.97991 -6.10871,1.63019 -21.99219,-1.25904 -12.42975,-2.261 -63.38363,-3.27748 -66.40589,-1.32473 -5.79577,3.74477 13.45054,9.55145 63.06475,19.02684 9.53333,1.82069 18.77556,3.61735 20.53829,3.99257 2.55641,0.54419 -2.09249,3.48307 -22.9736,14.52318 -14.39821,7.61252 -28.89044,15.70676 -32.20496,17.98721 -6.98874,4.80837 -7.86934,8.01816 -2.19978,8.01816 5.5829,0 27.48557,-6.8366 48.50671,-15.14068 21.16842,-8.36225 22.55826,-7.7574 10.71223,4.66192 -18.06976,18.94424 -53.31881,35.61764 -89.71222,42.43537 -16.5608,3.10241 -52.43436,5.24331 -53.69445,3.20443 z m 525.79611,-1.84437 c -34.10106,-5.27631 -63.57833,-14.89726 -83.2955,-27.18643 -10.76563,-6.70992 -28.80617,-23.60992 -28.80617,-26.985 0,-1.15444 0.74922,-1.78908 1.66666,-1.41177 24.81943,10.20725 61.5328,22.26653 67.78839,22.26653 9.24684,0 -5.25274,-10.23285 -40.61292,-28.66195 -14.39419,-7.50198 -21.83436,-12.06381 -20.66667,-12.67142 1.0035,-0.52218 7.22454,-1.97719 13.82454,-3.23338 47.09661,-8.9639 70.98286,-15.78906 69.62942,-19.89562 -1.08951,-3.30574 -36.94805,-2.03347 -72.21132,2.56205 -17.6936,2.30584 -16.75144,2.30001 -16.75144,0.10365 0,-1.75118 11.42459,-17.49958 24.28051,-33.46986 6.42893,-7.98635 7.83024,-11.40013 4.67956,-11.40013 -0.93863,0 -10.7884,7.8 -21.88837,17.33333 -11.09999,9.53333 -21.19399,17.33333 -22.43111,17.33333 -1.23713,0 -10.43736,-5.92674 -20.44496,-13.17056 -21.13204,-15.29601 -30.68575,-21.4961 -33.12333,-21.4961 -4.78846,0 0.15497,6.53377 19.91254,26.31861 23.5638,23.5963 24.0262,24.86737 6.90339,18.97626 -25.25295,-8.68829 -57.13754,-39.41814 -78.21925,-75.38643 -3.46808,-5.91704 -6.69593,-12.7099 -7.173,-15.09527 l -0.86741,-4.33703 5.18572,0.91614 c 21.51704,3.80128 66.17143,29.09766 84.46333,47.84785 9.34628,9.58044 9.91021,9.05821 14.49544,-13.42375 3.96182,-19.42526 5.01409,-32.8532 2.71756,-34.67845 -1.00318,-0.79731 -6.02395,-2.81219 -11.15728,-4.47751 -16.93912,-5.49526 -25.816,-11.087 -33.42926,-21.05777 -7.53428,-9.86734 -10.12978,-18.85522 -10.08875,-34.93598 0.0672,-26.36467 7.20059,-169.99139 8.52597,-171.66667 1.37861,-1.74258 8.59048,-2.24872 12.21632,-0.85734 1.89057,0.72548 2.10905,9.05105 2.10905,80.36998 0,69.85067 0.25332,79.92233 2.0756,82.52401 2.32835,3.32418 8.70419,4.04019 11.02929,1.2386 0.9585,-1.15492 1.78334,-28.57704 2.4966,-82.99999 l 1.06518,-81.27526 3.13561,-0.44384 c 1.72459,-0.2441 4.57459,-0.0827 6.33333,0.35874 l 3.19772,0.80257 v 80.64127 c 0,78.86349 0.0588,80.70005 2.66667,83.30793 3.3736,3.3736 6.92644,3.39625 9.94264,0.0633 2.20185,-2.43301 2.34268,-7.80493 2.15317,-82.13229 -0.14974,-58.73423 0.20255,-80.01736 1.34731,-81.39671 1.89707,-2.28582 9.43189,-2.45937 11.62355,-0.26772 1.20902,1.20903 1.6,21.22764 1.6,81.9244 v 80.32439 l 2.96334,2.07561 c 3.91642,2.74316 5.82743,2.61816 9.03666,-0.59107 2.60789,-2.60789 2.66666,-4.44444 2.66666,-83.33333 0,-44.36666 0.45,-80.74412 1,-80.83878 4.3709,-0.75235 12.19526,-0.73727 13.43007,0.0259 1.0275,0.63503 2.38314,20.58364 4.21993,62.09747 1.48837,33.63904 3.34888,72.91142 4.13445,87.27198 1.56203,28.55446 1.12766,35.34799 -2.95837,46.2689 -3.53963,9.4605 -14.8732,21.69723 -26.48518,28.59579 l -8.93247,5.30668 -0.86568,16.30271 c -0.47613,8.96648 -2.04616,21.97456 -3.48897,28.90683 -1.4428,6.93228 -2.36816,12.85925 -2.05635,13.17108 0.31181,0.31181 5.83996,-4.80956 12.28476,-11.38082 6.4448,-6.57126 15.48131,-14.7937 20.08115,-18.27209 16.93633,-12.80721 37.97571,-23.64992 40.66751,-20.95812 1.77291,1.77291 -11.50696,28.8902 -23.58934,48.16915 -4.82571,7.7 -8.77419,14.38581 -8.77443,14.85734 -9.6e-4,1.97386 4.10455,2.12911 12.12905,0.45867 27.49664,-5.72392 74.67835,-6.06629 100.5372,-0.72955 19.3884,4.00136 36.66667,9.49143 36.66667,11.65059 0,2.71641 -17.46747,13.50869 -33.33334,20.59501 -15.37217,6.86581 -57.58513,21.25728 -69.77366,23.78761 -6.00045,1.2457 -7.62104,2.09464 -7.29993,3.82407 0.227,1.2226 6.76572,6.42292 14.53048,11.55625 7.76476,5.13334 19.16345,13.30878 25.33044,18.16766 15.92768,12.54921 32.41821,30.40458 30.16317,32.65962 -1.96534,1.96533 -23.03559,1.49961 -38.18215,-0.84394 z"
       id="path3730"
       inkscape:connector-curvature="0" />
    <path
       style="fill:#48252b;stroke-width:1.33333325"
       d="m 780.768,706.5451 c -37.64464,-5.96716 -67.00149,-17.34873 -87.65059,-33.98191 -8.38638,-6.75537 -15.93296,-15.2387 -13.54155,-15.22248 0.59993,0.004 7.39079,2.45644 15.09079,5.4497 17.21154,6.69073 44.35823,14.5429 50.27799,14.5429 2.91463,0 4.38867,-0.63976 4.38867,-1.90476 0,-4.44573 -10.93443,-11.73232 -41.11028,-27.39546 -11.85601,-6.154 -21.55638,-11.61396 -21.55638,-12.13323 0,-0.51927 6.84284,-2.23793 15.2063,-3.81924 57.99091,-10.96456 81.38632,-19.61271 64.99645,-24.02604 -3.52556,-0.94933 -11.55489,-0.9566 -25.66666,-0.0232 -19.36915,1.28113 -53.7526,4.70293 -58.86943,5.85861 -3.9736,0.89747 -2.67057,-1.73524 7.33334,-14.81661 14.65024,-19.15704 21,-28.37696 21,-30.49222 0,-5.72172 -7.36596,-0.64678 -40.28047,27.75216 -4.0372,3.48333 -7.81504,6.33333 -8.39519,6.33333 -0.58014,0 -8.01545,-5.01303 -16.5229,-11.14005 -23.51846,-16.93787 -33.70483,-23.38038 -38.46811,-24.32967 -9.52525,-1.89833 -3.98993,6.25281 20.83849,30.68617 9.62216,9.46904 17.49484,17.35585 17.49484,17.52624 0,1.20872 -11.46233,-2.72271 -19.45436,-6.67257 -12.66778,-6.26076 -29.00322,-19.57945 -40.66013,-33.15123 -10.82176,-12.59942 -26.85914,-35.88232 -31.3996,-45.58556 -2.99064,-6.39121 -3.01481,-6.68364 -0.58485,-7.0776 3.56183,-0.57746 21.44411,5.76694 34.09895,12.09786 19.10529,9.55794 48.86209,30.78365 55.17738,39.35838 3.96375,5.38187 6.95443,2.79944 9.84559,-8.5016 5.59637,-21.87526 7.82937,-44.39092 4.64369,-46.82284 -0.91667,-0.69977 -5.70917,-2.56664 -10.65001,-4.1486 -20.76519,-6.64858 -31.49536,-14.7798 -38.63087,-29.27405 -3.46863,-7.0458 -4.46781,-10.92072 -4.87693,-18.91309 -0.283,-5.52848 1.18593,-47.70179 3.2643,-93.71845 l 3.77884,-83.66667 h 6.39067 6.39067 v 80.0606 80.06061 l 3.27273,3.27272 c 3.93291,3.93292 7.35217,4.14683 11.57956,0.72439 l 3.14771,-2.54835 0.3636,-80.78498 0.3636,-80.78499 h 5.30306 5.30307 v 80.66667 c 0,79.65889 0.0343,80.70096 2.74528,83.41194 4.34761,4.34762 10.6772,3.07864 13.57137,-2.72081 2.12415,-4.25644 2.30876,-11.12597 2.22162,-82.66666 l -0.0951,-78.02447 h 5.11172 5.11172 l 0.22772,79.55699 c 0.15432,53.91277 0.69109,80.42279 1.66525,82.24302 2.78375,5.20148 12.02172,5.34211 14.76047,0.22469 0.93033,-1.73834 1.38737,-29.35093 1.36804,-82.65091 l -0.029,-80.04046 h 6.67044 c 6.38739,0 6.67055,0.15559 6.67281,3.66667 0.003,4.05863 2.99445,71.12675 5.933,133 1.25668,26.46029 1.47653,42.21557 0.64949,46.54541 -3.11368,16.3014 -14.14201,30.58842 -30.22632,39.15772 -4.51109,2.40338 -8.50748,5.40338 -8.88085,6.66666 -0.37337,1.26328 -0.67992,8.36186 -0.6812,15.77463 -0.003,11.69716 -3.43613,35.02184 -6.22716,42.29512 -2.29833,5.98937 3.72039,1.94411 17.05367,-11.46197 16.15658,-16.2448 27.83569,-25.1921 43.39111,-33.24167 9.9541,-5.15103 13.65256,-6.15585 13.65256,-3.70927 0,2.51782 -12.27472,25.83536 -23.02085,43.7313 -7.54235,12.56056 -10.24768,18.17353 -9.24335,19.17786 1.00434,1.00434 6.61659,0.54787 19.1754,-1.55961 31.25654,-5.24513 70.32734,-4.97895 97.34777,0.66324 16.0899,3.35976 31.97051,8.60172 31.39663,10.36357 -0.84132,2.58291 -17.61803,12.33657 -32.16675,18.70113 -15.95267,6.97875 -55.00529,20.04131 -67.95358,22.72954 -15.86153,3.29306 -15.48192,5.32933 3.13901,16.8377 7.46439,4.61326 18.7663,12.41252 25.11534,17.33171 11.57841,8.97087 32.21038,29.45675 32.21038,31.98231 0,2.17506 -24.37721,1.3371 -41.89864,-1.44027 z"
       id="path3728"
       inkscape:connector-curvature="0" />
  </g>
</svg>
